<?xml version="1.0" encoding="UTF-8"?>
<svg id="Capa_2" data-name="Capa 2" xmlns="http://www.w3.org/2000/svg" viewBox="0 0 66.68 77.22">
  <defs>
    <style>
      .cls-1 {
        fill: #844315;
      }

      .cls-2 {
        fill: #92d050;
      }

      .cls-3 {
        fill: #027954;
      }

      .cls-4 {
        fill: #e84810;
      }

      .cls-5 {
        fill: #7348f5;
      }

      .cls-6 {
        fill: #3b98d4;
      }

      .cls-7 {
        fill: #4cad33;
      }

      .cls-8 {
        fill: #f8ab2c;
      }

      .cls-9 {
        fill: #ffac24;
      }

      .cls-10 {
        fill: #93c352;
      }

      .cls-11 {
        fill: #f8eede;
      }
    </style>
  </defs>
  <path class="cls-1" d="m33.34,31.76h0c5.86,0,10.61-4.75,10.61-10.61s-4.75-10.61-10.61-10.61h0c-5.86,0-10.61,4.75-10.61,10.61s4.75,10.61,10.61,10.61Zm4.77-8.23c0,1.03-.83,1.86-1.86,1.86s-1.86-.83-1.86-1.86.83-1.86,1.86-1.86,1.86.83,1.86,1.86Zm-4.93-6.62c1.03,0,1.86.83,1.86,1.86s-.83,1.86-1.86,1.86-1.86-.83-1.86-1.86.83-1.86,1.86-1.86Zm-2.76,4.76h0c1.03,0,1.86.83,1.86,1.86s-.83,1.86-1.86,1.86h0c-1.03,0-1.86-.83-1.86-1.86s.83-1.86,1.86-1.86Z"/>
  <path class="cls-11" d="m30.42,25.39h0c1.03,0,1.86-.83,1.86-1.86s-.83-1.86-1.86-1.86h0c-1.03,0-1.86.83-1.86,1.86s.83,1.86,1.86,1.86Z"/>
  <circle class="cls-11" cx="36.26" cy="23.53" r="1.86"/>
  <path class="cls-11" d="m33.19,20.63c1.03,0,1.86-.83,1.86-1.86s-.83-1.86-1.86-1.86-1.86.83-1.86,1.86.83,1.86,1.86,1.86Z"/>
  <path class="cls-7" d="m45.46,0c0,5.47,4.14,9.96,9.45,10.54h1.16c-.04-5.83-4.77-10.54-10.61-10.54Z"/>
  <path class="cls-10" d="m66.68,0h0c-5.84,0-10.57,4.71-10.61,10.54h1.16c5.31-.58,9.45-5.08,9.45-10.54Z"/>
  <path class="cls-6" d="m43.95,33.27h-21.22v21.22h21.22v-21.22Zm-10.76,17.25c-2.26,0-4.1-1.45-4.1-4.74s4.1-7.92,4.1-7.92c0,0,4.1,4.63,4.1,7.92s-1.83,4.74-4.1,4.74Z"/>
  <path class="cls-7" d="m63.14,54.49h3.54c0-11.72-9.5-21.22-21.22-21.22v3.54c9.76,0,17.68,7.92,17.68,17.68Z"/>
  <path class="cls-10" d="m54.3,54.49h8.84c0-9.76-7.92-17.68-17.68-17.68v8.84c4.88,0,8.84,3.96,8.84,8.84Z"/>
  <path class="cls-3" d="m45.46,45.65v8.84h8.84c0-4.88-3.96-8.84-8.84-8.84Z"/>
  <path class="cls-4" d="m56.07,66.61c5.86,0,10.61,4.75,10.61,10.61v-21.22c0,5.86-4.75,10.61-10.61,10.61Z"/>
  <path class="cls-4" d="m56.07,66.61c0,5.86-4.75,10.61-10.61,10.61h21.22c-5.86,0-10.61-4.75-10.61-10.61Z"/>
  <path class="cls-4" d="m56.07,66.61c0-5.86,4.75-10.61,10.61-10.61h-21.22c5.86,0,10.61,4.75,10.61,10.61Z"/>
  <path class="cls-4" d="m56.07,66.61c-5.86,0-10.61-4.75-10.61-10.61v21.22c0-5.86,4.75-10.61,10.61-10.61Z"/>
  <path class="cls-9" d="m56.07,66.61c5.86,0,10.61-4.75,10.61-10.61h0c-5.86,0-10.61,4.75-10.61,10.61Z"/>
  <path class="cls-9" d="m56.07,66.61h0c0,5.86,4.75,10.61,10.61,10.61h0c0-5.86-4.75-10.61-10.61-10.61Z"/>
  <path class="cls-9" d="m43.95,56h-21.22v21.22h21.22v-21.22Zm-13.88,9.02c-1.03,0-1.86-.83-1.86-1.86s.83-1.86,1.86-1.86,1.86.83,1.86,1.86-.83,1.86-1.86,1.86Zm6.55,0c-1.03,0-1.86-.83-1.86-1.86s.83-1.86,1.86-1.86,1.86.83,1.86,1.86-.83,1.86-1.86,1.86Z"/>
  <path class="cls-5" d="m21.22,77.22v-21.22H0c0,11.72,9.5,21.22,21.22,21.22Zm-4.42-17.77c1.03,0,1.86.83,1.86,1.86s-.83,1.86-1.86,1.86-1.86-.83-1.86-1.86.83-1.86,1.86-1.86Z"/>
  <rect class="cls-2" y="25.18" width="21.22" height="2.45"/>
  <rect class="cls-2" y="10.54" width="21.22" height="3.08"/>
  <rect class="cls-2" y="18.18" width="21.22" height="2.45"/>
  <rect class="cls-2" y="21.68" width="21.22" height="2.45"/>
  <rect class="cls-2" y="28.68" width="21.22" height="3.08"/>
  <rect class="cls-2" y="14.68" width="21.22" height="2.45"/>
  <rect class="cls-7" y="13.63" width="21.22" height="1.05"/>
  <rect class="cls-7" y="17.13" width="21.22" height="1.05"/>
  <rect class="cls-7" y="20.63" width="21.22" height="1.05"/>
  <rect class="cls-7" y="24.13" width="21.22" height="1.05"/>
  <rect class="cls-7" y="27.63" width="21.22" height="1.05"/>
  <path class="cls-4" d="m10.61,54.49h0c5.86,0,10.61-4.75,10.61-10.61h0c0-5.86-4.75-10.61-10.61-10.61h0c-5.86,0-10.61,4.75-10.61,10.61h0c0,5.86,4.75,10.61,10.61,10.61Zm0-16.95c3.5,0,6.34,2.84,6.34,6.34s-2.84,6.34-6.34,6.34-6.34-2.84-6.34-6.34,2.84-6.34,6.34-6.34Z"/>
  <path class="cls-8" d="m10.61,50.22c3.5,0,6.34-2.84,6.34-6.34s-2.84-6.34-6.34-6.34-6.34,2.84-6.34,6.34,2.84,6.34,6.34,6.34Z"/>
  <path class="cls-4" d="m54.33,29.55l-.74-1.58c-.12-.25.21-.47.39-.26l1.31,1.42c.07.08.2.1.29.05,1.88-1.03,3.59-2.33,5.08-3.85.09-.1.09-.25,0-.34l-1.35-1.3c-.2-.19.03-.51.27-.39l1.84.91c.1.05.22.02.29-.06,1.37-1.63,2.5-3.48,3.33-5.47.05-.12-.01-.27-.14-.32l-1.62-.63c-.26-.1-.17-.48.1-.46l1.96.12c.11,0,.21-.06.24-.16.7-2.1,1.08-4.35,1.08-6.69h-20.98c-.13,0-.24.11-.24.24v20.98c3.12,0,6.09-.68,8.75-1.89.12-.06.17-.2.12-.32Z"/>
</svg>