<?xml version="1.0" encoding="UTF-8"?>
<svg id="Capa_1" data-name="Capa 1" xmlns="http://www.w3.org/2000/svg" viewBox="0 0 100 100">
  <defs>
    <style>
      .cls-1 {
        fill: #fff;
        stroke-width: 0px;
      }
    </style>
  </defs>
  <path class="cls-1" d="m50,2.3h0C23.66,2.3,2.3,23.66,2.3,50s21.36,47.7,47.7,47.7h0c26.34,0,47.7-21.36,47.7-47.7S76.34,2.3,50,2.3Zm14.15,25.64c0,.73-.6,1.33-1.33,1.33h-6.63c-2.93,0-5.3,2.38-5.3,5.32v9.31h11.13c1.28,0,2.26,1.12,2.11,2.4l-.8,6.38c-.13,1.07-1.04,1.87-2.11,1.87h-10.34v26.68c-1.09.1-2.19.15-3.31.15-2.5,0-4.93-.25-7.29-.72v-26.1h-7.95c-.73,0-1.32-.6-1.32-1.33v-7.98c0-.73.6-1.33,1.32-1.33h7.95v-11.98c0-7.35,5.93-13.31,13.25-13.31h9.27c.73,0,1.33.6,1.33,1.33v7.98Z"/>
</svg>