<?xml version="1.0" encoding="UTF-8"?>
<svg id="Capa_2" data-name="Capa 2" xmlns="http://www.w3.org/2000/svg" viewBox="0 0 101 116.97">
  <defs>
    <style>
      .cls-1 {
        fill: #844315;
      }

      .cls-2 {
        fill: #fff;
      }

      .cls-3 {
        fill: #92d050;
      }

      .cls-4 {
        fill: #027954;
      }

      .cls-5 {
        fill: #e84810;
      }

      .cls-6 {
        fill: #7348f5;
      }

      .cls-7 {
        fill: #3b98d4;
      }

      .cls-8 {
        fill: #4cad33;
      }

      .cls-9 {
        fill: #f8ab2c;
      }

      .cls-10 {
        fill: #ffac24;
      }

      .cls-11 {
        fill: #93c352;
      }

      .cls-12 {
        fill: #f8eede;
      }
    </style>
  </defs>
  <rect class="cls-1" x="34.43" y="15.97" width="32.14" height="32.14" rx="16.07" ry="16.07"/>
  <rect class="cls-12" x="43.27" y="32.83" width="5.63" height="5.63" rx="2.81" ry="2.81"/>
  <rect class="cls-12" x="52.1" y="32.83" width="5.63" height="5.63" rx="2.81" ry="2.81"/>
  <rect class="cls-12" x="47.46" y="25.62" width="5.63" height="5.63" rx="2.81" ry="2.81"/>
  <path class="cls-8" d="m68.86,0h0c8.87,0,16.07,7.19,16.07,16.07h0s0,0,0,0C76.06,16.07,68.86,8.88,68.86,0h0Z"/>
  <path class="cls-11" d="m101,0h0c0,8.88-7.19,16.07-16.07,16.07h0C84.93,7.19,92.13,0,101,0Z"/>
  <rect class="cls-7" x="34.43" y="50.4" width="32.14" height="32.14"/>
  <path class="cls-2" d="m56.48,69.34c0,4.99-2.78,7.18-6.21,7.18s-6.21-2.19-6.21-7.18,6.21-12,6.21-12c0,0,6.21,7.01,6.21,12Z"/>
  <path class="cls-8" d="m68.86,82.54v-32.14h0c17.75,0,32.14,14.39,32.14,32.14h0s-32.14,0-32.14,0Z"/>
  <path class="cls-11" d="m95.65,82.54h0s-26.78,0-26.78,0v-26.78h0c14.79,0,26.78,11.99,26.78,26.78Z"/>
  <path class="cls-4" d="m82.26,82.54h0s-13.39,0-13.39,0v-13.39h0c7.4,0,13.39,6,13.39,13.39Z"/>
  <rect class="cls-5" x="68.86" y="84.83" width="32.14" height="32.14"/>
  <path class="cls-2" d="m68.86,84.83h0c8.87,0,16.07,7.19,16.07,16.07h0s0,0,0,0c-8.87,0-16.07-7.19-16.07-16.07h0Z"/>
  <path class="cls-10" d="m101,84.83h0c0,8.88-7.19,16.07-16.07,16.07h0c0-8.88,7.19-16.07,16.07-16.07Z"/>
  <path class="cls-2" d="m84.93,100.9h0c0,8.88-7.19,16.07-16.07,16.07h0c0-8.88,7.19-16.07,16.07-16.07Z"/>
  <path class="cls-10" d="m84.93,100.9h0c8.87,0,16.07,7.19,16.07,16.07h0s0,0,0,0c-8.87,0-16.07-7.19-16.07-16.07h0Z"/>
  <rect class="cls-10" x="34.43" y="84.83" width="32.14" height="32.14"/>
  <rect class="cls-2" x="42.73" y="92.87" width="5.63" height="5.63" rx="2.81" ry="2.81"/>
  <rect class="cls-2" x="52.64" y="92.87" width="5.63" height="5.63" rx="2.81" ry="2.81"/>
  <path class="cls-6" d="m0,84.83h32.14v32.14h0C14.39,116.97,0,102.58,0,84.83h0Z"/>
  <rect class="cls-2" x="22.63" y="90.05" width="5.63" height="5.63" rx="2.81" ry="2.81"/>
  <g>
    <rect class="cls-3" y="15.97" width="32.14" height="32.14"/>
    <g>
      <rect class="cls-8" y="20.64" width="32.14" height="1.59"/>
      <rect class="cls-8" y="25.94" width="32.14" height="1.59"/>
      <rect class="cls-8" y="31.24" width="32.14" height="1.59"/>
      <rect class="cls-8" y="36.55" width="32.14" height="1.59"/>
      <rect class="cls-8" y="41.85" width="32.14" height="1.59"/>
    </g>
  </g>
  <rect class="cls-5" x="0" y="50.4" width="32.14" height="32.14" rx="16.07" ry="16.07"/>
  <circle class="cls-9" cx="16.07" cy="66.47" r="9.6"/>
  <path class="cls-5" d="m69.23,15.97c-.2,0-.36.16-.36.36v31.77h0c4.73,0,9.22-1.02,13.26-2.86.18-.08.26-.3.18-.49l-1.11-2.39c-.18-.38.32-.71.6-.4l1.98,2.16c.11.12.3.15.44.07,2.85-1.55,5.44-3.53,7.69-5.84.14-.14.14-.38,0-.52l-2.04-1.96c-.3-.29.04-.77.41-.59l2.79,1.38c.15.07.33.04.44-.09,2.07-2.47,3.78-5.26,5.04-8.29.08-.19-.02-.41-.21-.48l-2.46-.95c-.39-.15-.26-.73.15-.7l2.96.18c.17.01.32-.09.37-.25,1.06-3.19,1.63-6.6,1.63-10.14h-31.77Z"/>
</svg>