<?xml version="1.0" encoding="UTF-8"?>
<svg id="Capa_2" data-name="Capa 2" xmlns="http://www.w3.org/2000/svg" viewBox="0 0 32.14 32.14">
  <defs>
    <style>
      .cls-1 {
        fill: #844315;
      }

      .cls-2 {
        fill: #4cad33;
      }

      .cls-3 {
        fill: #93c352;
      }
    </style>
  </defs>
  <rect class="cls-1" width="32.14" height="32.14"/>
  <path class="cls-2" d="m32.14,32.14h0c-8.87,0-16.07-7.19-16.07-16.07h0s0,0,0,0c8.87,0,16.07,7.19,16.07,16.07h0Z"/>
  <path class="cls-3" d="m0,32.14h0c0-8.88,7.19-16.07,16.07-16.07h0C16.07,24.94,8.88,32.14,0,32.14Z"/>
  <path class="cls-2" d="m16.07,16.07h0C16.07,7.19,23.26,0,32.14,0h0c0,8.88-7.19,16.07-16.07,16.07Z"/>
  <path class="cls-3" d="m16.07,16.07h0C7.19,16.07,0,8.88,0,0h0s0,0,0,0c8.87,0,16.07,7.19,16.07,16.07h0Z"/>
</svg>