<?xml version="1.0" encoding="UTF-8"?>
<svg id="Capa_1" data-name="Capa 1" xmlns="http://www.w3.org/2000/svg" viewBox="0 0 100 100">
  <defs>
    <style>
      .cls-1 {
        fill: #fff;
        stroke-width: 0px;
      }
    </style>
  </defs>
  <path class="cls-1" d="m50,2.3h0C23.66,2.3,2.3,23.66,2.3,50s21.36,47.7,47.7,47.7h0c26.34,0,47.7-21.36,47.7-47.7S76.34,2.3,50,2.3Zm25.02,60.64c0,6.67-5.41,12.08-12.08,12.08h-25.88c-6.67,0-12.08-5.41-12.08-12.08v-25.88c0-6.67,5.41-12.08,12.08-12.08h25.88c6.67,0,12.08,5.41,12.08,12.08v25.88Z"/>
  <path class="cls-1" d="m62.08,29.29h-24.16c-4.76,0-8.63,3.87-8.63,8.63v24.16c0,4.76,3.87,8.63,8.63,8.63h24.16c4.76,0,8.63-3.87,8.63-8.63v-24.16c0-4.76-3.87-8.63-8.63-8.63Zm-12.05,33.65c-7.14,0-12.94-5.8-12.94-12.94s5.8-12.94,12.94-12.94,12.94,5.8,12.94,12.94-5.8,12.94-12.94,12.94Zm13.8-24.16c-1.43,0-2.59-1.16-2.59-2.59s1.16-2.59,2.59-2.59,2.59,1.16,2.59,2.59-1.16,2.59-2.59,2.59Z"/>
  <path class="cls-1" d="m50.02,41.37c-4.75,0-8.63,3.87-8.63,8.63s3.87,8.63,8.63,8.63,8.63-3.87,8.63-8.63-3.87-8.63-8.63-8.63Z"/>
</svg>