<?xml version="1.0" encoding="UTF-8"?>
<svg id="Capa_2" data-name="Capa 2" xmlns="http://www.w3.org/2000/svg" viewBox="0 0 212.64 114.07">
  <defs>
    <style>
      .cls-1, .cls-2 {
        fill: #fff;
      }

      .cls-2 {
        fill-rule: evenodd;
      }
    </style>
  </defs>
  <g id="Capa_1-2" data-name="Capa 1">
    <g>
      <g>
        <path class="cls-1" d="m90.13,24.7c-1.96-2.36-4.64-3.93-8.04-4.7-.43-.09-1.04-.22-1.82-.41-4.93-1.06-7.4-2.29-7.4-3.68,0-.74.34-1.32,1.01-1.74.68-.42,1.63-.63,2.87-.63,1.62,0,3.29.33,5.02,1,1.72.66,3.44,1.63,5.15,2.89l5.41-12.94c-2.79-1.51-5.56-2.64-8.31-3.38-2.75-.74-5.54-1.11-8.38-1.11-6.17,0-11.16,1.67-14.97,5-3.81,3.33-5.71,7.66-5.71,12.97,0,3.42.98,6.28,2.94,8.58,1.96,2.3,4.79,3.9,8.48,4.8.63.14,1.51.33,2.64.57,3.49.72,5.24,1.77,5.24,3.14,0,.79-.35,1.41-1.05,1.87-.7.46-1.66.69-2.87.69-1.73,0-3.6-.41-5.59-1.23-1.99-.82-4.26-2.12-6.81-3.9l-5.68,13.85c3.24,1.85,6.49,3.23,9.73,4.16,3.24.92,6.49,1.39,9.73,1.39,3.52,0,6.66-.54,9.45-1.61l10.12-23.94c-.34-.57-.72-1.12-1.16-1.65Z"/>
        <path class="cls-1" d="m50.13,21.25h-27.33v11.62h7.74c-.2,1.28-.84,2.29-1.91,3.01-1.07.72-2.46,1.08-4.17,1.08-2.88,0-5.11-.96-6.69-2.89-1.58-1.93-2.36-4.63-2.36-8.13s.78-6.07,2.35-8.07c1.57-2,3.67-3.01,6.3-3.01,1.51,0,2.85.34,4.02,1.01,1.17.68,2.17,1.7,3.01,3.07l15.85-5.88c-2.5-4.28-5.72-7.53-9.66-9.75-3.94-2.22-8.45-3.33-13.51-3.33-2.89,0-5.62.38-8.2,1.13L0,37.9c1.21,2.43,2.8,4.63,4.79,6.6,2.48,2.43,5.32,4.27,8.53,5.52,3.21,1.25,6.68,1.87,10.42,1.87,5.07,0,9.59-1.12,13.58-3.36,3.99-2.24,7.24-5.48,9.76-9.71,1.04-1.8,1.82-3.87,2.36-6.22.54-2.34.81-4.93.81-7.77,0-.38-.01-.82-.03-1.32-.02-.5-.06-1.25-.1-2.26Z"/>
        <path class="cls-1" d="m133.85,18.14c.79,0,1.23-.27,1.23-.81v-.03c0-.51-.4-.8-1.17-.8h-1.68v1.64h1.63Z"/>
        <path class="cls-1" d="m135.46,20.81v-.03c0-.51-.4-.84-1.27-.84h-1.97v1.72h2c.79,0,1.24-.31,1.24-.85Z"/>
        <path class="cls-1" d="m123.34,21.6c1.43,0,2.37-1.15,2.37-2.49v-.03c0-1.35-.97-2.52-2.4-2.52s-2.36,1.15-2.36,2.49v.03c0,1.35.97,2.52,2.39,2.52Z"/>
        <polygon class="cls-1" points="124.57 34.6 127.34 34.6 125.97 31.09 124.57 34.6"/>
        <path class="cls-1" d="m177.25,21.6c1.43,0,2.37-1.15,2.37-2.49v-.03c0-1.35-.97-2.52-2.4-2.52s-2.36,1.15-2.36,2.49v.03c0,1.35.97,2.52,2.39,2.52Z"/>
        <path class="cls-1" d="m158.16,17.79v-.03c0-.73-.53-1.11-1.4-1.11h-1.69v2.24h1.71c.88,0,1.39-.43,1.39-1.11Z"/>
        <path class="cls-1" d="m102.58,10.79l-13.11,30.92h123.17V10.79h-110.06Zm69.64,8.29c0-2.68,2.16-4.85,5.04-4.85s5.01,2.15,5.01,4.82v.03c0,2.68-2.16,4.85-5.04,4.85-2.88,0-5.01-2.15-5.01-4.83v-.03Zm-10.15-4.67h2.41l3.84,4.93v-4.93h2.56v9.33h-2.27l-3.99-5.12v5.12h-2.56v-9.33Zm-9.59,0h4.41c1.43,0,2.41.37,3.04,1.01.55.53.83,1.25.83,2.17v.03c0,1.43-.76,2.37-1.92,2.87l2.23,3.25h-2.99l-1.88-2.83h-1.13v2.83h-2.59v-9.33Zm-8.89,0h7.5v2.2h-4.95v1.41h4.48v2.04h-4.48v1.48h5.01v2.2h-7.57v-9.33Zm-4.31,0h2.6v9.33s-2.6,0-2.6,0v-9.33Zm-9.59,0h4.78c1.17,0,2,.29,2.55.84.37.37.6.87.6,1.51v.03c0,1.08-.61,1.72-1.44,2.08,1.13.37,1.85,1.01,1.85,2.28v.03c0,1.6-1.31,2.57-3.53,2.57h-4.81v-9.33Zm-11.4,4.67c0-2.68,2.16-4.85,5.04-4.85,2.88,0,5.01,2.15,5.01,4.82v.03c0,2.68-2.16,4.85-5.04,4.85s-5.01-2.15-5.01-4.83v-.03Zm-10.25,0c0-2.72,2.13-4.85,5.02-4.85,1.64,0,2.8.51,3.79,1.36l-1.52,1.83c-.67-.56-1.33-.88-2.25-.88-1.35,0-2.39,1.13-2.39,2.56v.03c0,1.51,1.05,2.59,2.53,2.59.63,0,1.11-.13,1.49-.39v-1.13h-1.84v-1.89h4.29v4.2c-.99.81-2.36,1.44-4.05,1.44-2.91,0-5.08-2-5.08-4.83v-.03Zm10.63,16.58c0,2.52-1.99,4.02-4.99,4.02-2.19,0-4.27-.69-5.79-2.05l1.91-2.28c1.22.97,2.58,1.48,4.01,1.48.92,0,1.41-.32,1.41-.85v-.04c0-.51-.41-.79-2.08-1.18-2.63-.6-4.66-1.34-4.66-3.88v-.04c0-2.29,1.82-3.95,4.78-3.95,2.1,0,3.74.56,5.08,1.64l-1.71,2.42c-1.13-.79-2.36-1.22-3.46-1.22-.83,0-1.24.35-1.24.79v.04c0,.56.42.81,2.14,1.2,2.84.62,4.61,1.53,4.61,3.85v.04Zm10.55,3.81l-.9-2.21h-4.76l-.88,2.21h-3.6l5.26-12.44h3.3l5.26,12.44h-3.67Zm16.54,0h-3l-5.28-6.78v6.78s-3.39,0-3.39,0v-12.35s3.19,0,3.19,0l5.08,6.53v-6.53h3.39v12.35Zm12.34-9.35h-3.71v9.35h-3.42v-9.35h-3.71v-3h10.84s0,3,0,3Zm5.01,9.35h-3.44s0-12.35,0-12.35h3.44v12.35Zm11.42,0l-.9-2.21h-4.76l-.88,2.21h-3.6l5.26-12.44h3.3l5.26,12.44h-3.67Zm15.74-1.66c-1.31,1.08-3.12,1.91-5.37,1.91-3.85,0-6.72-2.65-6.72-6.39v-.04c0-3.6,2.82-6.42,6.65-6.42,2.17,0,3.71.67,5.01,1.8l-2.01,2.42c-.88-.74-1.76-1.16-2.98-1.16-1.78,0-3.16,1.5-3.16,3.39v.04c0,1.99,1.39,3.42,3.35,3.42.83,0,1.46-.18,1.98-.51v-1.5h-2.44v-2.51h5.68v5.56Zm-2.98-14.06v-9.33h3.6c3.33,0,5.26,1.92,5.26,4.61v.03c0,2.69-1.96,4.69-5.32,4.69h-3.55Zm17.77,9.55c0,3.55-2.86,6.42-6.67,6.42s-6.63-2.84-6.63-6.39v-.04c0-3.55,2.86-6.42,6.67-6.42s6.64,2.84,6.64,6.39v.04Zm0-9.55h-7.57v-9.33h7.5v2.2h-4.95v1.41h4.48v2.04h-4.48v1.48h5.01v2.2Z"/>
        <path class="cls-1" d="m198.41,29.96c-1.87,0-3.12,1.52-3.12,3.3v.04c0,1.78,1.29,3.34,3.16,3.34s3.14-1.52,3.14-3.3v-.04c0-1.78-1.29-3.34-3.18-3.34Z"/>
        <polygon class="cls-1" points="169.88 34.6 172.65 34.6 171.28 31.09 169.88 34.6"/>
        <path class="cls-1" d="m190.95,16.71h-1.05v4.75h1.05c1.55,0,2.57-.85,2.57-2.36v-.03c0-1.49-1.03-2.36-2.57-2.36Z"/>
      </g>
      <g>
        <g>
          <path class="cls-1" d="m69.42,90.28c-1.3,0-2.41-.18-3.33-.54-.92-.36-1.64-.89-2.17-1.59-.53-.7-.91-1.51-1.14-2.43-.23-.92-.35-1.99-.35-3.23v-8.3c0-1.26.12-2.36.35-3.29.23-.93.62-1.75,1.14-2.44.53-.7,1.25-1.22,2.16-1.57.91-.35,2.02-.53,3.33-.53s2.32.16,3.21.48c.88.32,1.58.79,2.08,1.4.5.62.86,1.32,1.08,2.11.22.79.33,1.7.33,2.74v2.05h-5.03v-2.34c0-.37,0-.64-.01-.83,0-.19-.04-.43-.1-.72s-.14-.52-.25-.67c-.11-.15-.27-.28-.5-.4-.22-.12-.5-.18-.81-.18s-.59.06-.81.18c-.22.12-.4.26-.51.42-.12.16-.21.39-.28.67-.07.29-.11.55-.13.78-.01.23-.02.52-.02.87v10.85c0,.94.12,1.65.37,2.14.24.49.71.74,1.39.74.31,0,.57-.06.79-.18.22-.12.39-.25.5-.41.11-.16.2-.38.26-.67.06-.29.1-.54.11-.76,0-.22.01-.5.01-.86v-2.44h5.03v2.01c0,.83-.07,1.59-.2,2.26-.13.67-.35,1.31-.67,1.9-.31.59-.72,1.09-1.22,1.5-.5.4-1.14.72-1.92.95-.78.23-1.68.34-2.7.34Z"/>
          <path class="cls-1" d="m85.6,90.28c-1.29,0-2.39-.17-3.31-.51s-1.64-.85-2.18-1.53c-.54-.68-.93-1.48-1.17-2.39-.24-.92-.36-2-.36-3.24v-8.59c0-1.25.12-2.34.36-3.25s.63-1.71,1.17-2.38c.54-.67,1.26-1.18,2.18-1.52s2.01-.51,3.31-.51c2.52,0,4.32.64,5.41,1.93,1.09,1.29,1.64,3.19,1.64,5.72v8.59c0,2.53-.55,4.44-1.64,5.74-1.09,1.3-2.89,1.94-5.41,1.94Zm-.79-3.8c.22.11.48.17.79.17s.58-.05.8-.16c.22-.11.4-.24.52-.41.12-.16.22-.38.29-.64.07-.26.11-.51.13-.74.02-.23.03-.5.03-.82v-11.16c0-.31,0-.58-.03-.81-.02-.23-.06-.47-.13-.73-.07-.26-.17-.47-.29-.62-.12-.16-.29-.29-.52-.4-.22-.11-.49-.16-.8-.16s-.57.05-.79.16c-.22.11-.39.24-.51.39-.12.15-.22.37-.28.63-.07.27-.11.51-.12.72-.01.22-.02.49-.02.81v11.16c0,.33,0,.6.02.82.01.22.05.46.12.73.07.27.16.48.28.64.12.16.29.29.51.41Z"/>
          <path class="cls-1" d="m95.73,89.96v-23.28h6.35c.98,0,1.85.06,2.61.17.76.11,1.47.31,2.13.59.66.28,1.21.65,1.64,1.11.43.46.77,1.05,1.01,1.77.24.72.37,1.56.37,2.53,0,1.53-.21,2.75-.62,3.68-.41.93-1.16,1.65-2.23,2.16l3.2,11.27h-5.32l-2.56-10.42h-1.45v10.42h-5.14Zm5.14-13.38h1.32c1.05,0,1.79-.27,2.22-.81.43-.54.65-1.36.65-2.46s-.19-1.87-.58-2.39c-.39-.52-1.06-.78-2.01-.78h-1.59v6.44Z"/>
          <path class="cls-1" d="m112.92,89.96v-23.28h10.46v3.51h-5.32v5.76h4.06v3.58h-4.06v6.95h5.38v3.48h-10.52Z"/>
        </g>
        <g>
          <path class="cls-1" d="m64.59,101.07c-.3,0-.56-.04-.79-.11-.23-.07-.42-.18-.56-.31-.15-.13-.27-.3-.36-.5-.09-.2-.16-.41-.2-.64-.04-.23-.06-.48-.06-.76v-2.41c0-.3.02-.57.06-.8.04-.23.1-.45.2-.65.09-.2.21-.36.36-.49.15-.13.34-.23.56-.3.23-.07.49-.11.79-.11.34,0,.64.05.88.14.24.09.44.23.58.4.14.18.24.39.31.62.06.24.1.51.1.83v.59h-1.21v-.59c0-.34-.02-.58-.05-.7-.07-.23-.25-.36-.53-.37h-.07c-.11,0-.2.01-.28.04-.08.02-.14.06-.19.12-.05.05-.09.11-.12.17s-.05.14-.07.24c-.02.1-.02.19-.03.27,0,.08,0,.19,0,.32v2.92c0,.41.05.69.15.87.1.17.28.26.54.26.09,0,.17-.01.24-.03.07-.02.12-.05.17-.08.05-.03.08-.08.12-.14.03-.06.06-.12.07-.17.02-.05.03-.12.04-.21,0-.09.01-.17.01-.23,0-.06,0-.15,0-.26v-.62h1.21v.57c0,.26-.02.49-.05.7-.04.21-.1.4-.19.58-.09.18-.2.33-.34.45-.14.12-.32.21-.53.28s-.47.1-.75.1Z"/>
          <path class="cls-1" d="m69.21,101.07c-.71,0-1.22-.19-1.53-.58-.31-.39-.46-.95-.46-1.69v-2.55c0-.37.03-.68.1-.95.07-.27.18-.5.34-.7.15-.2.36-.34.62-.44.26-.1.57-.15.93-.15.71,0,1.22.19,1.53.57.31.38.46.94.46,1.67v2.55c0,.36-.04.68-.11.95-.07.27-.18.51-.34.71-.15.2-.36.35-.62.46-.26.1-.57.15-.93.15Zm-.31-.99c.09.04.19.05.31.05s.23-.02.31-.05c.09-.04.15-.08.21-.14.05-.06.09-.13.12-.23.03-.09.05-.19.06-.28,0-.09.01-.21.01-.34v-3.14c0-.17,0-.31-.02-.42s-.05-.22-.1-.31c-.05-.1-.12-.17-.22-.22-.1-.05-.22-.07-.37-.07s-.27.02-.37.07c-.1.05-.17.12-.22.22-.05.1-.08.2-.1.31s-.02.25-.02.42v3.14c0,.13,0,.24.01.34,0,.09.03.19.06.28.03.09.07.17.12.23.05.06.12.11.21.14Z"/>
          <path class="cls-1" d="m72.12,100.98v-6.91h.87l1.69,3.91v-3.91h1.04v6.91h-.82l-1.71-4.11v4.11h-1.07Z"/>
          <path class="cls-1" d="m78.49,101.07c-1.22,0-1.85-.7-1.92-2.11l1.1-.23c.03.91.29,1.37.78,1.37.19,0,.33-.06.43-.17.09-.12.14-.27.14-.47s-.03-.37-.1-.53c-.07-.16-.15-.29-.24-.39-.09-.1-.22-.23-.39-.38l-.91-.79c-.27-.23-.47-.48-.6-.73-.13-.25-.2-.57-.2-.94,0-.54.16-.95.47-1.25.32-.3.75-.45,1.3-.45.25,0,.48.03.67.09.19.07.35.15.48.26.13.11.23.25.32.41.08.16.15.33.19.51s.07.37.09.59l-1.07.21c0-.14-.01-.26-.03-.36-.01-.1-.03-.21-.06-.31-.03-.11-.07-.19-.12-.26-.05-.07-.11-.12-.2-.16-.08-.04-.18-.05-.29-.05-.19.01-.33.07-.43.19-.1.11-.15.26-.15.45,0,.22.04.4.13.55.09.14.22.3.41.46l.9.78c.15.14.28.27.39.4.11.13.22.27.32.44.1.16.18.34.23.54.05.2.08.41.08.62,0,.5-.16.91-.48,1.22-.32.31-.74.47-1.25.47Z"/>
          <path class="cls-1" d="m80.96,100.98v-6.91h2.89v.89h-1.63v1.98h1.29v.89h-1.29v2.28h1.65v.87h-2.91Z"/>
          <path class="cls-1" d="m84.16,101.13v-.88c.37,0,.61-.05.74-.17.12-.11.18-.35.18-.7v-5.3h1.26v5.33c0,.3-.03.56-.08.76-.05.21-.13.38-.25.53-.12.15-.28.26-.48.32-.2.07-.46.1-.76.1h-.6Z"/>
          <path class="cls-1" d="m89.25,101.07c-.71,0-1.22-.19-1.53-.58-.31-.39-.46-.95-.46-1.69v-2.55c0-.37.03-.68.1-.95.07-.27.18-.5.34-.7.15-.2.36-.34.62-.44.26-.1.57-.15.93-.15.71,0,1.22.19,1.53.57.31.38.46.94.46,1.67v2.55c0,.36-.04.68-.11.95-.07.27-.18.51-.34.71-.15.2-.36.35-.62.46-.26.1-.57.15-.93.15Zm-.31-.99c.09.04.19.05.31.05s.23-.02.31-.05c.09-.04.15-.08.21-.14.05-.06.09-.13.12-.23.03-.09.05-.19.06-.28,0-.09.01-.21.01-.34v-3.14c0-.17,0-.31-.02-.42s-.05-.22-.1-.31c-.05-.1-.12-.17-.22-.22-.1-.05-.22-.07-.37-.07s-.27.02-.37.07c-.1.05-.17.12-.22.22-.05.1-.08.2-.1.31s-.02.25-.02.42v3.14c0,.13,0,.24.01.34,0,.09.03.19.06.28.03.09.07.17.12.23.05.06.12.11.21.14Z"/>
          <path class="cls-1" d="m94.24,100.98v-6.91h1.58c.36,0,.68.03.94.09.26.06.49.16.68.3.19.14.34.33.43.57.1.24.14.53.14.88,0,.43-.06.79-.19,1.06-.13.27-.34.47-.64.6l.96,3.4h-1.26l-.82-3.15h-.56v3.15h-1.26Zm1.26-3.96h.3c.37,0,.64-.08.79-.24.16-.16.24-.43.24-.81s-.07-.63-.2-.79c-.14-.16-.39-.24-.75-.24h-.38v2.08Z"/>
          <path class="cls-1" d="m98.97,100.98v-6.91h2.89v.89h-1.63v1.98h1.29v.89h-1.29v2.28h1.65v.87h-2.91Z"/>
          <path class="cls-1" d="m104.34,101.07c-.65,0-1.12-.2-1.41-.61-.29-.41-.43-1-.43-1.78v-2.25c0-.4.03-.74.09-1.03.06-.29.17-.54.31-.76.15-.22.35-.38.61-.49s.57-.16.95-.16c.68,0,1.17.17,1.47.5s.45.84.45,1.52v.34h-1.2v-.36c0-.15,0-.28-.01-.37,0-.1-.02-.19-.05-.29-.03-.1-.06-.17-.11-.23-.05-.05-.12-.1-.2-.13-.09-.03-.19-.05-.32-.05-.09,0-.18.01-.25.04-.07.02-.14.05-.19.09s-.09.08-.13.15c-.03.06-.06.13-.08.19-.02.06-.03.14-.04.23,0,.09-.02.18-.02.25,0,.07,0,.17,0,.28v2.79c0,.42.05.72.15.91.1.19.3.29.59.29.15,0,.28-.03.38-.09.1-.06.18-.14.24-.26s.1-.25.12-.4c.02-.15.04-.33.04-.54v-.57h-.75v-.81h1.88v3.51h-.82l-.09-.7c-.21.53-.6.79-1.17.79Z"/>
          <path class="cls-1" d="m107.4,100.98v-6.91h1.24v6.91h-1.24Z"/>
          <path class="cls-1" d="m111.58,101.07c-.71,0-1.22-.19-1.53-.58-.31-.39-.46-.95-.46-1.69v-2.55c0-.37.03-.68.1-.95.07-.27.18-.5.34-.7.15-.2.36-.34.62-.44.26-.1.57-.15.93-.15.71,0,1.22.19,1.53.57.31.38.46.94.46,1.67v2.55c0,.36-.04.68-.11.95-.07.27-.18.51-.34.71-.15.2-.36.35-.62.46-.26.1-.57.15-.93.15Zm-.31-.99c.09.04.19.05.31.05s.23-.02.31-.05c.09-.04.15-.08.21-.14.05-.06.09-.13.12-.23.03-.09.05-.19.06-.28s.01-.21.01-.34v-3.14c0-.17,0-.31-.02-.42s-.05-.22-.1-.31c-.05-.1-.12-.17-.22-.22s-.22-.07-.37-.07-.27.02-.37.07c-.1.05-.17.12-.22.22-.05.1-.08.2-.1.31s-.02.25-.02.42v3.14c0,.13,0,.24.01.34,0,.09.03.19.06.28.03.09.07.17.12.23.05.06.12.11.21.14Z"/>
          <path class="cls-1" d="m114.5,100.98v-6.91h.87l1.69,3.91v-3.91h1.04v6.91h-.82l-1.71-4.11v4.11h-1.07Z"/>
          <path class="cls-1" d="m118.77,100.98l1.4-6.91h1.31l1.4,6.91h-1.17l-.28-1.6h-1.2l-.28,1.6h-1.19Zm1.6-2.42h.92l-.46-2.84-.46,2.84Z"/>
          <path class="cls-1" d="m123.56,100.98v-6.91h1.26v6.03h1.65v.87h-2.91Z"/>
        </g>
        <g>
          <path class="cls-1" d="m64.64,108.37c-.37,0-.64-.12-.81-.35-.16-.23-.25-.57-.25-1.02v-1.29c0-.23.02-.42.05-.59.04-.16.1-.31.18-.43.08-.12.2-.22.35-.28s.33-.09.54-.09c.39,0,.67.1.84.29.17.19.26.48.26.87v.19h-.69v-.21c0-.09,0-.16,0-.22,0-.06-.01-.11-.03-.17-.02-.06-.04-.1-.07-.13-.03-.03-.07-.06-.12-.07-.05-.02-.11-.03-.18-.03-.05,0-.1,0-.14.02-.04.01-.08.03-.11.05-.03.02-.05.05-.07.08-.02.04-.04.07-.05.11-.01.03-.02.08-.02.13,0,.05,0,.1-.01.14,0,.04,0,.09,0,.16v1.6c0,.24.03.41.09.52.06.11.17.17.34.17.09,0,.16-.02.22-.05.06-.03.1-.08.14-.15.03-.07.06-.14.07-.23s.02-.19.02-.31v-.32h-.43v-.47h1.08v2.01h-.47l-.05-.4c-.12.3-.34.45-.67.45Z"/>
          <path class="cls-1" d="m67.19,108.36c-.3,0-.53-.09-.68-.26-.15-.17-.22-.42-.22-.73v-.93c0-.32.07-.56.22-.73.15-.17.38-.26.68-.26s.53.09.68.26c.15.17.23.42.23.73v.93c0,.32-.08.56-.23.73-.15.17-.38.26-.68.26Zm0-.47c.05,0,.1-.01.13-.04.03-.02.06-.06.07-.11.02-.05.03-.1.03-.15,0-.05,0-.11,0-.18v-1.03c0-.06,0-.11,0-.15,0-.04,0-.08-.02-.13,0-.05-.02-.08-.04-.11-.02-.03-.04-.05-.07-.07-.03-.02-.07-.03-.11-.03-.05,0-.1.01-.13.04-.03.02-.06.06-.07.11-.02.05-.03.1-.03.15,0,.05,0,.11,0,.18v1.03c0,.06,0,.11,0,.15,0,.04,0,.08.02.13,0,.05.02.08.04.11.02.03.04.05.07.07.03.02.07.03.11.03Z"/>
          <path class="cls-1" d="m69.76,108.36c-.18,0-.35-.08-.53-.25v.21h-.67v-3.96h.67v1.35c.17-.17.36-.26.57-.26.1,0,.19.02.27.07.08.04.14.1.18.17.04.07.08.14.11.23s.05.17.06.25c0,.08.01.16.01.24v.93c0,.14-.01.28-.04.4-.02.12-.06.23-.11.33-.05.1-.12.17-.21.23-.09.05-.19.08-.31.08Zm-.23-.48s.09-.01.12-.04c.03-.03.06-.07.07-.12.02-.05.03-.11.03-.16,0-.06,0-.12,0-.21v-.97c0-.07,0-.13,0-.18,0-.05-.02-.1-.04-.15-.02-.05-.04-.08-.08-.11s-.08-.04-.13-.03c-.09,0-.18.04-.28.11v1.78c.09.06.19.09.3.09Z"/>
          <path class="cls-1" d="m70.92,105.04v-.56h.67v.56h-.67Zm0,3.28v-2.83h.67v2.83h-.67Z"/>
          <path class="cls-1" d="m72.97,108.36c-.32,0-.56-.09-.7-.27-.14-.18-.21-.44-.21-.79v-.8c0-.35.07-.61.22-.79.14-.18.37-.27.69-.27.17,0,.31.02.43.07.12.05.21.12.27.22.06.1.11.22.14.35.03.13.04.29.04.47v.37h-1.12v.43c0,.06,0,.1,0,.14,0,.03,0,.07,0,.12,0,.05.01.08.02.11.01.03.02.05.04.08.02.03.04.05.07.06.03.01.06.02.1.02.09,0,.15-.03.19-.09.04-.06.05-.15.05-.27v-.16h.63v.11c0,.29-.07.52-.22.67-.15.16-.36.23-.65.23Zm-.25-1.76h.48v-.27c0-.14-.02-.25-.05-.31-.04-.06-.1-.09-.19-.09s-.16.03-.19.11c-.03.07-.05.2-.05.38v.18Z"/>
          <path class="cls-1" d="m74.31,108.32v-2.83h.67v.43c.09-.17.19-.29.29-.36.1-.07.2-.11.31-.11.03,0,.07,0,.1.01v.66c-.07-.03-.15-.04-.23-.04-.1,0-.18.03-.25.07-.07.04-.14.12-.21.22v1.94h-.67Z"/>
          <path class="cls-1" d="m75.99,108.32v-2.83h.67v.28c.23-.21.46-.32.69-.32.16,0,.28.06.35.18.07.12.11.26.11.43v2.26h-.67v-2.11c0-.09-.01-.16-.04-.2-.03-.04-.07-.06-.15-.06-.08,0-.18.04-.3.13v2.24h-.67Z"/>
          <path class="cls-1" d="m79.16,108.36c-.3,0-.53-.09-.68-.26-.15-.17-.22-.42-.22-.73v-.93c0-.32.07-.56.22-.73.15-.17.38-.26.68-.26s.53.09.68.26c.15.17.23.42.23.73v.93c0,.32-.08.56-.23.73-.15.17-.38.26-.68.26Zm0-.47c.05,0,.1-.01.13-.04.03-.02.06-.06.07-.11.02-.05.03-.1.03-.15,0-.05,0-.11,0-.18v-1.03c0-.06,0-.11,0-.15,0-.04,0-.08-.02-.13,0-.05-.02-.08-.04-.11-.02-.03-.04-.05-.07-.07-.03-.02-.07-.03-.11-.03-.05,0-.1.01-.13.04-.03.02-.06.06-.07.11-.02.05-.03.1-.03.15,0,.05,0,.11,0,.18v1.03c0,.06,0,.11,0,.15,0,.04,0,.08.02.13,0,.05.02.08.04.11.02.03.04.05.07.07.03.02.07.03.11.03Z"/>
          <path class="cls-1" d="m81.77,108.32v-3.96h.91c.21,0,.39.02.54.05.15.03.28.09.39.17.11.08.19.19.25.33.05.14.08.31.08.51,0,.25-.04.45-.11.61-.07.16-.2.27-.37.34l.55,1.95h-.72l-.47-1.81h-.32v1.81h-.72Zm.72-2.27h.17c.21,0,.37-.05.46-.14.09-.09.14-.25.14-.47s-.04-.36-.12-.46c-.08-.09-.22-.14-.43-.14h-.22v1.19Z"/>
          <path class="cls-1" d="m85.3,108.36c-.32,0-.56-.09-.7-.27-.14-.18-.21-.44-.21-.79v-.8c0-.35.07-.61.22-.79.14-.18.37-.27.69-.27.17,0,.31.02.43.07.12.05.21.12.27.22.06.1.11.22.14.35.03.13.04.29.04.47v.37h-1.12v.43c0,.06,0,.1,0,.14,0,.03,0,.07,0,.12,0,.05.01.08.02.11.01.03.02.05.04.08.02.03.04.05.07.06.03.01.06.02.1.02.09,0,.15-.03.19-.09.04-.06.05-.15.05-.27v-.16h.63v.11c0,.29-.07.52-.22.67-.15.16-.36.23-.65.23Zm-.25-1.76h.48v-.27c0-.14-.02-.25-.05-.31-.04-.06-.1-.09-.19-.09s-.16.03-.19.11c-.03.07-.05.2-.05.38v.18Z"/>
          <path class="cls-1" d="m87.6,109.17c-.08,0-.16,0-.22,0-.06,0-.14,0-.22-.01-.08,0-.15-.02-.21-.03-.06-.01-.12-.03-.18-.06s-.11-.05-.15-.08c-.04-.03-.07-.07-.1-.12-.03-.05-.04-.11-.04-.17,0-.24.13-.44.4-.6-.19-.07-.29-.17-.3-.32,0-.1.01-.19.06-.26.05-.07.14-.16.26-.26-.11-.08-.18-.18-.24-.3-.05-.12-.08-.28-.08-.48,0-.35.08-.61.23-.77.15-.17.37-.25.65-.25s.5.09.61.28c.04-.04.09-.09.16-.15.07-.06.15-.11.22-.15l.09-.04.16.37c-.06.01-.14.04-.25.09-.11.04-.19.08-.23.1.03.06.06.13.08.24.02.1.03.2.03.3,0,.65-.28.97-.85.97-.05,0-.11,0-.19-.02s-.13-.03-.16-.03c-.05.08-.08.14-.08.19,0,.06.09.1.25.12.02,0,.1.01.25.03.15.02.24.02.26.03.24.03.41.09.52.21.11.11.16.27.16.48,0,.25-.07.43-.21.55-.14.12-.37.18-.7.18Zm0-.47c.14,0,.24-.02.3-.05.06-.04.1-.09.1-.17,0-.08-.02-.15-.06-.19-.05-.04-.13-.06-.26-.08l-.45-.04c-.1.11-.15.22-.15.31,0,.05.01.09.04.12.02.03.08.05.15.07.08.02.19.03.33.03Zm-.13-1.69c.11,0,.18-.04.22-.12.03-.08.05-.23.05-.44s-.02-.37-.05-.45c-.03-.08-.1-.13-.22-.13s-.19.04-.22.13c-.03.09-.05.24-.05.45,0,.08,0,.14,0,.19,0,.05.01.1.02.15.01.05.03.09.05.12.02.03.04.05.08.07.03.02.07.03.12.03Z"/>
          <path class="cls-1" d="m88.92,105.04v-.56h.67v.56h-.67Zm0,3.28v-2.83h.67v2.83h-.67Z"/>
          <path class="cls-1" d="m90.96,108.36c-.3,0-.53-.09-.68-.26-.15-.17-.22-.42-.22-.73v-.93c0-.32.07-.56.22-.73.15-.17.38-.26.68-.26s.53.09.68.26c.15.17.23.42.23.73v.93c0,.32-.08.56-.23.73-.15.17-.38.26-.68.26Zm0-.47c.05,0,.1-.01.13-.04.03-.02.06-.06.07-.11.02-.05.03-.1.03-.15,0-.05,0-.11,0-.18v-1.03c0-.06,0-.11,0-.15,0-.04,0-.08-.02-.13,0-.05-.02-.08-.04-.11-.02-.03-.04-.05-.07-.07-.03-.02-.07-.03-.11-.03-.05,0-.1.01-.13.04-.03.02-.06.06-.07.11-.02.05-.03.1-.03.15,0,.05,0,.11,0,.18v1.03c0,.06,0,.11,0,.15,0,.04,0,.08.02.13,0,.05.02.08.04.11.02.03.04.05.07.07.03.02.07.03.11.03Z"/>
          <path class="cls-1" d="m92.33,108.32v-2.83h.67v.28c.23-.21.46-.32.69-.32.16,0,.28.06.35.18.07.12.11.26.11.43v2.26h-.67v-2.11c0-.09-.01-.16-.04-.2-.03-.04-.07-.06-.15-.06-.08,0-.18.04-.3.13v2.24h-.67Z"/>
          <path class="cls-1" d="m95.2,108.36c-.18,0-.32-.07-.44-.21-.11-.14-.17-.29-.17-.47,0-.16.03-.31.08-.43.05-.12.14-.23.27-.32.12-.09.23-.15.31-.19.08-.04.21-.09.38-.16l.11-.04v-.24c0-.13-.01-.22-.04-.28-.03-.06-.09-.09-.18-.09-.15,0-.22.1-.23.31v.18s-.65-.02-.65-.02c0,0,0-.03,0-.05,0-.03,0-.04,0-.05.02-.3.11-.51.26-.65.16-.14.38-.21.67-.21s.49.08.62.23c.13.15.2.37.2.64v1.29c0,.22.02.45.05.71h-.6c-.04-.18-.06-.32-.07-.42-.04.13-.11.24-.2.33-.09.09-.21.13-.36.13Zm.26-.52c.05,0,.1-.02.15-.06.05-.04.09-.08.12-.12v-.78c-.33.18-.5.39-.5.62,0,.1.02.18.06.24.04.06.09.09.17.09Z"/>
          <path class="cls-1" d="m96.91,108.32v-3.96h.67v3.96h-.67Z"/>
          <path class="cls-1" d="m99.33,108.32l.06-3.96h.74l.57,2.78.59-2.78h.72l.07,3.96h-.54l-.05-2.73-.57,2.73h-.42l-.58-2.74-.04,2.74h-.55Z"/>
          <path class="cls-1" d="m103.5,108.36c-.32,0-.56-.09-.7-.27-.14-.18-.21-.44-.21-.79v-.8c0-.35.07-.61.22-.79.14-.18.37-.27.69-.27.17,0,.31.02.43.07.12.05.21.12.27.22.06.1.11.22.14.35.03.13.04.29.04.47v.37h-1.12v.43c0,.06,0,.1,0,.14,0,.03,0,.07,0,.12,0,.05.01.08.02.11.01.03.02.05.04.08.02.03.04.05.07.06.03.01.06.02.1.02.09,0,.15-.03.19-.09.03-.06.05-.15.05-.27v-.16h.63v.11c0,.29-.07.52-.22.67-.15.16-.36.23-.65.23Zm-.25-1.76h.48v-.27c0-.14-.02-.25-.05-.31-.04-.06-.1-.09-.19-.09s-.16.03-.19.11c-.03.07-.05.2-.05.38v.18Z"/>
          <path class="cls-1" d="m105.61,108.35c-.13,0-.24-.02-.33-.06-.09-.04-.16-.1-.21-.18-.05-.08-.08-.16-.11-.26-.02-.1-.03-.21-.03-.33v-1.59h-.28v-.44h.28v-.83h.67v.83h.43v.44h-.43v1.63c0,.09.02.16.06.2s.11.06.19.06c.06,0,.13,0,.2-.01v.51c-.19.03-.34.04-.46.03Z"/>
          <path class="cls-1" d="m106.46,108.32v-2.83h.67v.43c.09-.17.19-.29.29-.36.1-.07.2-.11.31-.11.03,0,.07,0,.1.01v.66c-.07-.03-.15-.04-.23-.04-.1,0-.18.03-.25.07-.07.04-.14.12-.21.22v1.94h-.67Z"/>
          <path class="cls-1" d="m109,108.36c-.3,0-.53-.09-.68-.26-.15-.17-.22-.42-.22-.73v-.93c0-.32.07-.56.22-.73.15-.17.38-.26.68-.26s.53.09.68.26c.15.17.23.42.23.73v.93c0,.32-.08.56-.23.73-.15.17-.38.26-.68.26Zm0-.47c.05,0,.1-.01.13-.04.03-.02.06-.06.07-.11.02-.05.03-.1.03-.15,0-.05,0-.11,0-.18v-1.03c0-.06,0-.11,0-.15,0-.04,0-.08-.02-.13,0-.05-.02-.08-.04-.11-.02-.03-.04-.05-.07-.07-.03-.02-.07-.03-.11-.03-.05,0-.1.01-.13.04-.03.02-.06.06-.07.11-.02.05-.03.1-.03.15,0,.05,0,.11,0,.18v1.03c0,.06,0,.11,0,.15,0,.04,0,.08.02.13,0,.05.02.08.04.11.02.03.04.05.07.07.03.02.07.03.11.03Z"/>
          <path class="cls-1" d="m110.37,109.25v-3.76h.67v.22c.18-.18.37-.26.57-.26.1,0,.19.02.27.07.08.04.14.1.18.17s.08.14.11.23c.03.09.05.17.06.25,0,.08.01.16.01.24v.93c0,.14-.01.28-.04.4-.02.12-.06.23-.11.33-.05.1-.12.17-.21.23-.09.05-.19.08-.31.08-.18,0-.35-.09-.53-.26v1.14h-.67Zm.96-1.37s.09-.01.12-.04.06-.07.07-.12c.02-.05.03-.11.03-.16s0-.12,0-.2v-.97c0-.07,0-.12-.01-.18,0-.05-.02-.1-.04-.15-.02-.05-.04-.08-.08-.11-.04-.02-.08-.04-.13-.03-.09,0-.18.04-.28.11v1.77c.1.06.19.09.29.09Z"/>
          <path class="cls-1" d="m113.55,108.36c-.3,0-.53-.09-.68-.26-.15-.17-.22-.42-.22-.73v-.93c0-.32.07-.56.22-.73.15-.17.38-.26.68-.26s.53.09.68.26c.15.17.23.42.23.73v.93c0,.32-.08.56-.23.73-.15.17-.38.26-.68.26Zm0-.47c.05,0,.1-.01.13-.04.03-.02.06-.06.07-.11.02-.05.03-.1.03-.15,0-.05,0-.11,0-.18v-1.03c0-.06,0-.11,0-.15,0-.04,0-.08-.02-.13,0-.05-.02-.08-.04-.11-.02-.03-.04-.05-.07-.07-.03-.02-.07-.03-.11-.03-.05,0-.1.01-.13.04-.03.02-.06.06-.07.11-.02.05-.03.1-.03.15,0,.05,0,.11,0,.18v1.03c0,.06,0,.11,0,.15,0,.04,0,.08.02.13,0,.05.02.08.04.11.02.03.04.05.07.07.03.02.07.03.11.03Z"/>
          <path class="cls-1" d="m114.96,108.32v-3.96h.67v3.96h-.67Z"/>
          <path class="cls-1" d="m116.18,105.04v-.56h.67v.56h-.67Zm0,3.28v-2.83h.67v2.83h-.67Z"/>
          <path class="cls-1" d="m118.16,108.35c-.13,0-.24-.02-.33-.06-.09-.04-.16-.1-.21-.18-.05-.08-.08-.16-.11-.26-.02-.1-.03-.21-.03-.33v-1.59h-.28v-.44h.28v-.83h.67v.83h.43v.44h-.43v1.63c0,.09.02.16.06.2s.11.06.19.06c.06,0,.13,0,.2-.01v.51c-.19.03-.34.04-.46.03Z"/>
          <path class="cls-1" d="m119.54,108.36c-.18,0-.32-.07-.44-.21-.11-.14-.17-.29-.17-.47,0-.16.03-.31.08-.43.05-.12.14-.23.27-.32.12-.09.23-.15.31-.19.08-.04.21-.09.38-.16.05-.02.08-.03.11-.04v-.24c0-.13-.01-.22-.04-.28-.03-.06-.09-.09-.18-.09-.15,0-.22.1-.23.31v.18s-.65-.02-.65-.02c0,0,0-.03,0-.05,0-.03,0-.04,0-.05.02-.3.11-.51.26-.65.16-.14.38-.21.67-.21s.49.08.62.23c.13.15.2.37.2.64v1.29c0,.22.02.45.05.71h-.6c-.04-.18-.06-.32-.07-.42-.04.13-.11.24-.2.33-.09.09-.21.13-.36.13Zm.26-.52c.05,0,.1-.02.15-.06.05-.04.09-.08.12-.12v-.78c-.33.18-.5.39-.5.62,0,.1.02.18.06.24.04.06.09.09.17.09Z"/>
          <path class="cls-1" d="m121.21,108.32v-2.83h.67v.28c.23-.21.46-.32.69-.32.16,0,.28.06.35.18.07.12.11.26.11.43v2.26h-.67v-2.11c0-.09-.01-.16-.04-.2-.03-.04-.07-.06-.15-.06-.08,0-.18.04-.3.13v2.24h-.67Z"/>
          <path class="cls-1" d="m124.38,108.36c-.3,0-.53-.09-.68-.26-.15-.17-.22-.42-.22-.73v-.93c0-.32.07-.56.22-.73.15-.17.38-.26.68-.26s.53.09.68.26c.15.17.23.42.23.73v.93c0,.32-.08.56-.23.73-.15.17-.38.26-.68.26Zm0-.47c.05,0,.1-.01.13-.04.03-.02.06-.06.07-.11.02-.05.03-.1.03-.15,0-.05,0-.11,0-.18v-1.03c0-.06,0-.11,0-.15,0-.04,0-.08-.02-.13,0-.05-.02-.08-.04-.11-.02-.03-.04-.05-.07-.07-.03-.02-.07-.03-.11-.03-.05,0-.1.01-.13.04-.03.02-.06.06-.07.11-.02.05-.03.1-.03.15,0,.05,0,.11,0,.18v1.03c0,.06,0,.11,0,.15,0,.04,0,.08.02.13,0,.05.02.08.04.11.02.03.04.05.07.07.03.02.07.03.11.03Z"/>
          <path class="cls-1" d="m84.23,113.26c-.23,0-.4-.08-.52-.25-.11-.16-.17-.42-.17-.78v-.82c0-.15.01-.29.03-.41.02-.12.06-.23.11-.34.05-.1.12-.18.21-.24.09-.06.2-.08.32-.08.18,0,.35.07.5.22v-1.31h.67v3.96h-.67v-.19c-.15.16-.32.24-.49.24Zm.23-.48c.08,0,.17-.03.26-.08v-1.81c-.09-.06-.18-.09-.26-.09-.09,0-.15.04-.19.12-.04.08-.06.18-.06.31v1.04c0,.1,0,.19.02.25.01.07.04.12.08.17.04.05.09.07.16.07Z"/>
          <path class="cls-1" d="m86.76,113.26c-.32,0-.56-.09-.7-.27-.14-.18-.21-.44-.21-.79v-.8c0-.35.07-.61.22-.79.14-.18.37-.27.69-.27.17,0,.31.02.43.07.12.05.21.12.27.22.06.1.11.22.14.35.03.13.04.29.04.47v.37h-1.12v.43c0,.06,0,.1,0,.14,0,.03,0,.07,0,.12,0,.05.01.08.02.11.01.03.02.05.04.08.02.03.04.05.07.06.03.01.06.02.1.02.09,0,.15-.03.19-.09.04-.06.05-.15.05-.27v-.16h.63v.11c0,.29-.07.52-.22.67-.15.16-.36.23-.65.23Zm-.25-1.76h.48v-.27c0-.14-.02-.25-.05-.31-.04-.06-.1-.09-.19-.09s-.16.03-.19.11c-.03.07-.05.2-.05.38v.18Z"/>
          <path class="cls-1" d="m90.32,113.26c-.7,0-1.06-.4-1.1-1.21l.63-.13c.02.52.17.79.45.79.11,0,.19-.03.24-.1s.08-.16.08-.27-.02-.21-.06-.3c-.04-.09-.09-.17-.14-.22s-.13-.13-.22-.22l-.52-.45c-.15-.13-.27-.27-.34-.42-.07-.14-.11-.32-.11-.54,0-.31.09-.55.27-.72.18-.17.43-.26.74-.26.14,0,.27.02.38.05.11.04.2.09.28.15s.13.14.18.24c.05.09.08.19.11.29.02.1.04.21.05.34l-.62.12c0-.08,0-.15-.02-.21,0-.06-.02-.12-.04-.18-.02-.06-.04-.11-.07-.15s-.07-.07-.11-.09c-.05-.02-.1-.03-.16-.03-.11,0-.19.04-.24.11-.06.06-.08.15-.08.26,0,.13.03.23.08.31.05.08.13.17.24.26l.52.45c.09.08.16.15.22.23.06.07.12.16.18.25.06.09.1.2.13.31.03.11.05.23.05.36,0,.29-.09.52-.27.7-.18.18-.42.27-.72.27Z"/>
          <path class="cls-1" d="m92.24,113.26c-.18,0-.32-.07-.44-.21-.11-.14-.17-.29-.17-.47,0-.16.03-.31.08-.43.05-.12.14-.23.27-.32.12-.09.23-.15.31-.19.08-.04.21-.09.38-.16l.11-.04v-.24c0-.13-.01-.22-.04-.28-.03-.06-.09-.09-.18-.09-.15,0-.22.1-.23.31v.18s-.65-.02-.65-.02c0,0,0-.03,0-.05,0-.03,0-.04,0-.05.02-.3.11-.51.26-.65.16-.14.38-.21.67-.21s.49.08.62.23c.13.15.2.37.2.64v1.29c0,.22.02.45.05.71h-.6c-.04-.18-.06-.32-.07-.42-.04.13-.11.24-.2.33-.09.09-.21.13-.36.13Zm.26-.52c.05,0,.1-.02.15-.06.05-.04.09-.08.12-.12v-.78c-.33.18-.5.39-.5.62,0,.1.02.18.06.24.04.06.09.09.17.09Z"/>
          <path class="cls-1" d="m93.91,113.21v-2.83h.67v.28c.23-.21.46-.32.69-.32.16,0,.28.06.35.18.07.12.11.26.11.43v2.26h-.67v-2.11c0-.09-.01-.16-.04-.2-.03-.04-.07-.06-.15-.06-.08,0-.18.04-.3.13v2.24h-.67Z"/>
          <path class="cls-1" d="m97.02,113.25c-.13,0-.24-.02-.33-.06-.09-.04-.16-.1-.21-.18-.05-.08-.08-.16-.11-.26-.02-.1-.03-.21-.03-.33v-1.59h-.28v-.44h.28v-.83h.67v.83h.43v.44h-.43v1.63c0,.09.02.16.06.2s.11.06.19.06c.06,0,.13,0,.2-.01v.51c-.19.03-.34.04-.46.03Z"/>
          <path class="cls-1" d="m97.88,109.93v-.56h.67v.56h-.67Zm0,3.28v-2.83h.67v2.83h-.67Z"/>
          <path class="cls-1" d="m99.62,113.26c-.18,0-.32-.07-.44-.21-.11-.14-.17-.29-.17-.47,0-.16.03-.31.08-.43.05-.12.14-.23.27-.32.12-.09.23-.15.31-.19.08-.04.21-.09.38-.16l.11-.04v-.24c0-.13-.01-.22-.04-.28-.03-.06-.09-.09-.18-.09-.15,0-.22.1-.23.31v.18s-.65-.02-.65-.02c0,0,0-.03,0-.05,0-.03,0-.04,0-.05.02-.3.11-.51.26-.65.16-.14.38-.21.67-.21s.49.08.62.23c.13.15.2.37.2.64v1.29c0,.22.02.45.05.71h-.6c-.04-.18-.06-.32-.07-.42-.04.13-.11.24-.2.33-.09.09-.21.13-.36.13Zm.26-.52c.05,0,.1-.02.15-.06.05-.04.09-.08.12-.12v-.78c-.33.18-.5.39-.5.62,0,.1.02.18.06.24.04.06.09.09.17.09Z"/>
          <path class="cls-1" d="m102.26,114.07c-.08,0-.16,0-.22,0-.06,0-.14,0-.22-.01-.08,0-.15-.02-.21-.03-.06-.01-.12-.03-.18-.06s-.11-.05-.15-.08c-.04-.03-.07-.07-.1-.12-.03-.05-.04-.11-.04-.17,0-.24.13-.44.4-.6-.19-.07-.29-.17-.3-.32,0-.1.01-.19.06-.26.05-.07.14-.16.26-.26-.11-.08-.18-.18-.24-.3-.05-.12-.08-.28-.08-.48,0-.35.08-.61.23-.77.15-.17.37-.25.65-.25s.5.09.61.28c.04-.04.09-.09.16-.15.07-.06.15-.11.22-.15l.09-.04.16.37c-.06.01-.14.04-.25.09-.11.04-.19.08-.23.1.03.06.06.13.08.24.02.1.03.2.03.3,0,.65-.28.97-.85.97-.05,0-.11,0-.19-.02s-.13-.03-.16-.03c-.05.08-.08.14-.08.19,0,.06.09.1.25.12.02,0,.1.01.25.03.15.02.24.02.26.03.24.03.41.09.52.21.11.11.16.27.16.48,0,.25-.07.43-.21.55-.14.12-.37.18-.7.18Zm0-.47c.14,0,.24-.02.3-.05.06-.04.1-.09.1-.17,0-.08-.02-.15-.06-.19-.05-.04-.13-.06-.26-.08l-.45-.04c-.1.11-.15.22-.15.31,0,.05.01.09.04.12.02.03.08.05.15.07.08.02.19.03.33.03Zm-.13-1.69c.11,0,.18-.04.22-.12.03-.08.05-.23.05-.44s-.02-.37-.05-.45c-.03-.08-.1-.13-.22-.13s-.19.04-.22.13c-.03.09-.05.24-.05.45,0,.08,0,.14,0,.19,0,.05.01.1.02.15.01.05.03.09.05.12.02.03.04.05.08.07.03.02.07.03.12.03Z"/>
          <path class="cls-1" d="m104.4,113.26c-.3,0-.53-.09-.68-.26-.15-.17-.22-.42-.22-.73v-.93c0-.32.07-.56.22-.73.15-.17.38-.26.68-.26s.53.09.68.26c.15.17.23.42.23.73v.93c0,.32-.08.56-.23.73-.15.17-.38.26-.68.26Zm0-.47c.05,0,.1-.01.13-.04.03-.02.06-.06.07-.11.02-.05.03-.1.03-.15,0-.05,0-.11,0-.18v-1.03c0-.06,0-.11,0-.15,0-.04,0-.08-.02-.13,0-.05-.02-.08-.04-.11-.02-.03-.04-.05-.07-.07-.03-.02-.07-.03-.11-.03-.05,0-.1.01-.13.04-.03.02-.06.06-.07.11-.02.05-.03.1-.03.15,0,.05,0,.11,0,.18v1.03c0,.06,0,.11,0,.15,0,.04,0,.08.02.13,0,.05.02.08.04.11.02.03.04.05.07.07.03.02.07.03.11.03Z"/>
        </g>
        <path class="cls-2" d="m32.87,65.85c1.21,0,2.26.43,3.11,1.27.82.81,1.28,1.82,1.31,2.98.04,1.27-.39,2.38-1.29,3.28-.89.89-2,1.33-3.25,1.28-1.19-.05-2.23-.51-3.06-1.39-.83-.88-1.23-1.94-1.21-3.13.02-1.18.47-2.21,1.32-3.03.85-.82,1.88-1.24,3.06-1.25"/>
        <path class="cls-2" d="m52.51,70.35c.13,0,.26,0,.39,0,.46,0,.9.13,1.33.31.56.24,1.06.56,1.48,1.01.46.5.78,1.07.94,1.74.09.37.17.73.15,1.1-.04.5-.13,1-.32,1.48-.28.71-.74,1.28-1.31,1.76-.52.44-1.12.72-1.78.9-.53.14-1.06.17-1.6.14-.39-.02-.78-.13-1.16-.27-.6-.23-1.12-.58-1.57-1.05-.2-.22-.36-.47-.52-.72-.21-.31-.31-.67-.44-1.02-.04-.1-.04-.21-.06-.31-.09-.34-.09-.69-.05-1.04.05-.47.16-.92.35-1.36.27-.61.65-1.14,1.15-1.57.58-.5,1.25-.83,1.99-1.02.34-.09.68-.09,1.02-.1"/>
        <path class="cls-2" d="m44.69,100.06c.75-.04,1.45.19,2.12.57.51.28.9.68,1.27,1.12.36.44.58.95.74,1.49.07.24.12.5.12.75,0,.12,0,.24,0,.36,0,.83-.24,1.57-.71,2.25-.43.62-1,1.07-1.68,1.37-.35.15-.71.25-1.1.3-.27.03-.54.05-.81.03-.42-.03-.84-.1-1.24-.27-.37-.15-.73-.31-1.04-.56-.27-.21-.54-.42-.75-.7-.17-.23-.34-.46-.49-.71-.21-.36-.34-.74-.43-1.15-.09-.36-.11-.73-.1-1.1.02-.44.12-.85.28-1.26.22-.55.54-1.03.98-1.44.51-.47,1.1-.8,1.78-.96.17-.04.34-.06.5-.09.17-.03.34,0,.55,0"/>
        <path class="cls-2" d="m26.63,102.04c-.47.04-.91-.09-1.32-.28-.24-.11-.48-.25-.67-.45-.3-.3-.6-.59-.76-.98-.16-.38-.3-.76-.29-1.18,0-.37.02-.73.16-1.08.18-.49.45-.9.87-1.22.29-.22.59-.39.93-.51.39-.14.79-.17,1.19-.14.34.03.69.12,1,.28.42.22.81.5,1.12.89.3.38.49.79.59,1.24.08.33.08.67.03,1.02-.05.37-.17.69-.34,1.01-.23.43-.56.78-.99,1.01-.21.12-.42.24-.65.31-.28.08-.57.13-.85.1"/>
        <path class="cls-2" d="m23.68,85.63c-1.92.01-3.15-1.28-3.18-2.73-.02-.86.3-1.59.94-2.18.5-.45,1.08-.7,1.75-.73.84-.04,1.57.23,2.17.83.6.6.88,1.31.84,2.14-.04.75-.35,1.38-.91,1.91-.55.52-1.2.75-1.61.76"/>
        <path class="cls-2" d="m54.77,88.65c.79-.05,1.43.26,1.95.78.47.46.74,1.06.76,1.73.03.81-.24,1.51-.82,2.07-.47.46-1.03.71-1.69.76-.5.04-.98-.04-1.44-.29-.44-.23-.8-.54-1.07-.97-.27-.43-.41-.9-.41-1.38,0-.47.1-.93.36-1.35.26-.42.57-.76,1-1,.43-.25.88-.37,1.35-.34"/>
        <circle class="cls-1" cx="39.23" cy="87.28" r="12.86" transform="translate(-54.53 106.42) rotate(-77.33)"/>
      </g>
      <g>
        <g>
          <path class="cls-1" d="m160.32,87.82c0-.61,0-1.22,0-1.83,0-.06.02-.12.03-.18.09-1.97.43-3.88,1.01-5.76,2.8-9.05,10.94-15.51,20.38-16.17.25-.02.5-.04.76-.06.61,0,1.22,0,1.83,0,.06,0,.12.02.18.03.8.08,1.6.13,2.39.24,2.78.41,5.39,1.32,7.84,2.7,6.77,3.81,11.13,10.69,11.71,18.48.02.25.04.49.06.74v1.83c0,.06-.02.12-.03.18-.09,1.97-.43,3.88-1.01,5.76-2.8,9.05-10.94,15.51-20.38,16.17-.25.02-.5.04-.76.06h-1.83c-.06,0-.12-.02-.18-.03-.8-.08-1.6-.13-2.39-.24-2.79-.41-5.41-1.33-7.87-2.71-6.74-3.8-11.14-10.76-11.68-18.44-.02-.25-.04-.5-.06-.76Zm41.8-.89c0-10.3-8.31-18.63-18.56-18.69-10.39-.07-18.76,8.3-18.81,18.58-.06,10.38,8.31,18.75,18.59,18.79,10.39.05,18.78-8.35,18.78-18.68Z"/>
          <path class="cls-1" d="m190.93,86.62c0,1.12.02,2.25,0,3.37-.02.82-.31,1.55-.99,2.06-.44.33-.94.48-1.48.53-.65.06-1.3.03-1.91-.23-.9-.38-1.37-1.09-1.5-2.03-.03-.23-.04-.46-.04-.69,0-2.12,0-4.23,0-6.35,0-.53.37-.93.86-.94.52-.02.93.39.93.94,0,2.12,0,4.24,0,6.37,0,.19.02.38.06.57.07.36.23.68.57.85.71.37,1.47-.02,1.64-.85.04-.22.06-.45.06-.67,0-2.09,0-4.18,0-6.26,0-.43.24-.78.61-.9.58-.19,1.15.2,1.19.82,0,.1,0,.19,0,.29,0,1.04,0,2.09,0,3.13,0,0,0,0,0,0Z"/>
          <path class="cls-1" d="m179.06,93.18c-.48-.22-.92-.45-1.39-.62-.44-.16-.9-.27-1.35-.39-.12-.03-.15-.07-.15-.19,0-3.52,0-7.03,0-10.55,0-.68.42-1.24,1.07-1.44.78-.23,1.65.27,1.81,1.07.04.19.06.38.06.57,0,3.69,0,7.38,0,11.07,0,.16-.03.32-.05.48Z"/>
          <path class="cls-1" d="m175.76,87.55c0,1.61,0,3.23,0,4.84,0,.73-.41,1.31-1.11,1.49-.88.23-1.69-.33-1.83-1.19-.02-.14-.02-.28-.02-.42,0-3.21,0-6.42,0-9.63,0-.86.66-1.54,1.5-1.51.72.02,1.3.52,1.42,1.22.02.15.04.31.04.47,0,1.57,0,3.15,0,4.72Z"/>
          <path class="cls-1" d="m194.46,82.33c.79,0,1.44.16,1.98.64.55.49.81,1.12.82,1.84,0,.73-.76,1.16-1.41.8-.19-.11-.28-.29-.32-.5-.04-.19-.06-.39-.1-.58-.1-.54-.48-.82-1.06-.78-.57.04-.89.38-.92.93-.04.65.33,1.07.82,1.4.64.45,1.31.86,1.95,1.32.77.56,1.16,1.33,1.19,2.28.01.4,0,.79-.12,1.17-.2.64-.58,1.14-1.19,1.43-.86.41-1.76.5-2.67.26-1.05-.28-1.58-1.05-1.79-2.08-.07-.36-.07-.73.05-1.09.12-.37.4-.55.84-.54.4,0,.65.18.75.55.06.22.09.44.11.66.04.37.12.72.42.97.36.29.77.3,1.18.14.4-.16.56-.5.6-.91.09-.71-.25-1.2-.82-1.59-.66-.45-1.31-.92-1.96-1.39-1.18-.84-1.55-2.58-.8-3.75.46-.71,1.16-1.03,1.96-1.15.18-.03.37-.03.47-.04Z"/>
          <path class="cls-1" d="m172.4,92.16c-1.02.22-1.97.58-2.9,1.13-.03-.22-.05-.4-.07-.59,0-.09,0-.18,0-.27,0-2.84,0-5.69,0-8.53,0-.58.22-1.07.74-1.37.91-.52,2.05.02,2.19,1.05.02.18.03.37.03.56,0,2.6,0,5.2,0,7.8v.23Z"/>
          <path class="cls-1" d="m174.25,95.61v.35c1.15.14,3.08-.63,3.66-2.75.35.18.69.36,1.03.53-.22.77-.59,1.43-1.11,1.99-.86.92-1.93,1.45-3.19,1.55-1.29.1-2.45-.27-3.46-1.1-.72-.59-1.22-1.34-1.52-2.22-.04-.11-.02-.17.08-.23.33-.17.66-.35,1-.53.06.17.11.31.16.45.05.14.14.08.22.05.08-.03.2-.04.14-.19-.06-.14-.1-.29-.15-.46.43-.13.85-.26,1.28-.39.11.6.39,1.08.9,1.39.38.23.8.3,1.24.25.7-.08,1.44-.59,1.62-1.67.46.13.91.27,1.39.41-.19.78-.59,1.39-1.2,1.87-.61.47-1.31.7-2.09.69Zm-.68.32c.03-.16.05-.27.06-.36-.32-.12-.61-.23-.91-.34-.05.1-.1.19-.17.32.34.13.67.25,1.02.38Zm-2.29-1.54c.24.26.46.5.69.75.09-.12.16-.2.22-.28-.21-.23-.41-.45-.62-.67-.09.06-.17.11-.3.2Z"/>
          <path class="cls-1" d="m183.93,87.45c0,1.35,0,2.7,0,4.04,0,.31-.06.6-.31.83-.51.45-1.32.18-1.46-.48-.02-.11-.03-.22-.03-.34,0-2.72,0-5.44,0-8.15,0-.6.35-1.01.88-1.02.55-.02.93.39.93.99,0,.97,0,1.94,0,2.91,0,.41,0,.81,0,1.22Z"/>
          <path class="cls-1" d="m172.8,79.21c0-.83.64-1.43,1.35-1.48.92-.07,1.59.63,1.6,1.45.01.83-.63,1.46-1.41,1.49-.84.03-1.52-.62-1.54-1.45Z"/>
          <path class="cls-1" d="m177.66,76.53c.8-.02,1.52.7,1.45,1.56-.05.72-.65,1.42-1.58,1.37-.72-.04-1.4-.67-1.36-1.54.03-.76.67-1.42,1.49-1.39Z"/>
          <path class="cls-1" d="m170.93,78.93c.82.02,1.47.68,1.45,1.48-.02.86-.72,1.48-1.55,1.45-.76-.03-1.44-.73-1.4-1.51.04-.78.63-1.43,1.5-1.43Z"/>
        </g>
        <path class="cls-1" d="m169.75,97.05v-.68h.29c.07,0,.13,0,.16.02s.06.03.08.07.03.07.03.11c0,.05-.02.09-.05.13s-.08.05-.14.06c.03.02.05.04.07.06s.05.06.08.11l.08.13h-.17l-.1-.15c-.04-.05-.06-.09-.07-.1s-.03-.02-.04-.03-.04,0-.07,0h-.03v.29h-.14Zm.14-.39h.1c.07,0,.11,0,.12,0s.03-.02.04-.03.01-.03.01-.05c0-.02,0-.04-.02-.06s-.03-.02-.05-.03c-.01,0-.04,0-.1,0h-.11v.17Z"/>
        <path class="cls-1" d="m170.01,97.34c-.33,0-.59-.27-.59-.59s.27-.59.59-.59.59.27.59.59-.27.59-.59.59Zm0-1.12c-.29,0-.52.23-.52.52s.23.52.52.52.52-.23.52-.52-.23-.52-.52-.52Z"/>
      </g>
    </g>
  </g>
</svg>