<?xml version="1.0" encoding="UTF-8"?>
<svg id="Capa_2" data-name="Capa 2" xmlns="http://www.w3.org/2000/svg" viewBox="0 0 32.14 48.11">
  <defs>
    <style>
      .cls-1 {
        fill: #e84810;
      }

      .cls-2 {
        fill: #4cad33;
      }

      .cls-3 {
        fill: #93c352;
      }
    </style>
  </defs>
  <path class="cls-2" d="m0,0h0c8.87,0,16.07,7.19,16.07,16.07h0s0,0,0,0C7.19,16.07,0,8.88,0,0h0Z"/>
  <path class="cls-3" d="m32.14,0h0c0,8.88-7.19,16.07-16.07,16.07h0C16.07,7.19,23.26,0,32.14,0Z"/>
  <path class="cls-1" d="m.36,15.97C.16,15.97,0,16.13,0,16.33v31.77H0c4.73,0,9.22-1.02,13.26-2.86.18-.08.26-.3.18-.49l-1.11-2.39c-.18-.38.32-.71.6-.4l1.98,2.16c.11.12.3.15.44.07,2.85-1.55,5.44-3.53,7.69-5.84.14-.14.14-.38,0-.52l-2.04-1.96c-.3-.29.04-.77.41-.59l2.79,1.38c.15.07.33.04.44-.09,2.07-2.47,3.78-5.26,5.04-8.29.08-.19-.02-.41-.21-.48l-2.46-.95c-.39-.15-.26-.73.15-.7l2.96.18c.17.01.32-.09.37-.25,1.06-3.19,1.63-6.6,1.63-10.14H.36Z"/>
</svg>