<?xml version="1.0" encoding="UTF-8"?>
<svg id="Capa_2" data-name="Capa 2" xmlns="http://www.w3.org/2000/svg" viewBox="0 0 175.28 62.38">
  <defs>
    <style>
      .cls-1 {
        fill: #844315;
      }

      .cls-2 {
        fill: #007a55;
      }

      .cls-3 {
        fill: #56509c;
      }

      .cls-4 {
        fill: #fff;
      }

      .cls-5 {
        fill: #92c253;
      }

      .cls-6 {
        fill: #e84810;
      }

      .cls-7 {
        fill: #3b98d4;
      }

      .cls-8 {
        fill: #4cad33;
      }

      .cls-9 {
        fill: #f8ab2c;
      }

      .cls-10 {
        fill: #f7a92c;
      }

      .cls-11 {
        fill: #93c352;
      }

      .cls-12 {
        fill: #f8eede;
      }
    </style>
  </defs>
  <g id="Capa_1-2" data-name="Capa 1">
    <g>
      <g>
        <rect class="cls-1" x="17.03" y="7.9" width="15.9" height="15.9" rx="7.95" ry="7.95"/>
        <rect class="cls-12" x="21.41" y="16.24" width="2.79" height="2.79" rx="1.39" ry="1.39"/>
        <rect class="cls-12" x="25.78" y="16.24" width="2.79" height="2.79" rx="1.39" ry="1.39"/>
        <rect class="cls-12" x="23.48" y="12.67" width="2.79" height="2.79" rx="1.39" ry="1.39"/>
      </g>
      <path class="cls-8" d="m34.07,0h0c4.39,0,7.95,3.56,7.95,7.95h0s0,0,0,0C37.63,7.95,34.07,4.39,34.07,0h0Z"/>
      <path class="cls-11" d="m49.97,0h0c0,4.39-3.56,7.95-7.95,7.95h0C42.02,3.56,45.58,0,49.97,0Z"/>
      <rect class="cls-7" x="17.03" y="24.93" width="15.9" height="15.9"/>
      <path class="cls-4" d="m27.94,34.31c0,2.47-1.37,3.55-3.07,3.55s-3.07-1.08-3.07-3.55,3.07-5.94,3.07-5.94c0,0,3.07,3.47,3.07,5.94Z"/>
      <path class="cls-8" d="m34.07,40.83v-15.9h0c8.78,0,15.9,7.12,15.9,15.9h0s-15.9,0-15.9,0Z"/>
      <path class="cls-11" d="m47.32,40.83h0s-13.25,0-13.25,0v-13.25h0c7.32,0,13.25,5.93,13.25,13.25Z"/>
      <path class="cls-2" d="m40.69,40.83h0s-6.62,0-6.62,0v-6.62h0c3.66,0,6.62,2.97,6.62,6.62Z"/>
      <rect class="cls-6" x="34.07" y="41.97" width="15.9" height="15.9"/>
      <path class="cls-4" d="m34.07,41.97h0c4.39,0,7.95,3.56,7.95,7.95h0s0,0,0,0c-4.39,0-7.95-3.56-7.95-7.95h0Z"/>
      <path class="cls-10" d="m49.97,41.97h0c0,4.39-3.56,7.95-7.95,7.95h0c0-4.39,3.56-7.95,7.95-7.95Z"/>
      <path class="cls-4" d="m42.02,49.92h0c0,4.39-3.56,7.95-7.95,7.95h0c0-4.39,3.56-7.95,7.95-7.95Z"/>
      <path class="cls-10" d="m42.02,49.92h0c4.39,0,7.95,3.56,7.95,7.95h0s0,0,0,0c-4.39,0-7.95-3.56-7.95-7.95h0Z"/>
      <rect class="cls-10" x="17.03" y="41.97" width="15.9" height="15.9"/>
      <rect class="cls-4" x="21.14" y="45.94" width="2.79" height="2.79" rx="1.39" ry="1.39"/>
      <rect class="cls-4" x="26.04" y="45.94" width="2.79" height="2.79" rx="1.39" ry="1.39"/>
      <path class="cls-3" d="m0,41.97h15.9v15.9h0c-8.78,0-15.9-7.12-15.9-15.9h0Z"/>
      <rect class="cls-4" x="11.19" y="44.55" width="2.79" height="2.79" rx="1.39" ry="1.39"/>
      <g>
        <rect class="cls-5" y="7.9" width="15.9" height="15.9"/>
        <g>
          <rect class="cls-8" y="10.21" width="15.9" height=".79"/>
          <rect class="cls-8" y="12.83" width="15.9" height=".79"/>
          <rect class="cls-8" y="15.46" width="15.9" height=".79"/>
          <rect class="cls-8" y="18.08" width="15.9" height=".79"/>
          <rect class="cls-8" y="20.7" width="15.9" height=".79"/>
        </g>
      </g>
      <rect class="cls-6" x="0" y="24.93" width="15.9" height="15.9" rx="7.95" ry="7.95"/>
      <circle class="cls-9" cx="7.95" cy="32.88" r="4.75"/>
      <path class="cls-6" d="m34.25,7.9c-.1,0-.18.08-.18.18v15.72h0c2.34,0,4.56-.51,6.56-1.41.09-.04.13-.15.09-.24l-.55-1.18c-.09-.19.16-.35.3-.2l.98,1.07c.06.06.15.08.22.04,1.41-.77,2.69-1.74,3.8-2.89.07-.07.07-.19,0-.26l-1.01-.97c-.15-.14.02-.38.21-.29l1.38.68c.07.04.17.02.22-.05,1.03-1.22,1.87-2.6,2.49-4.1.04-.09,0-.2-.1-.24l-1.22-.47c-.19-.07-.13-.36.08-.35l1.47.09c.08,0,.16-.05.18-.12.52-1.58.81-3.26.81-5.02h-15.72Z"/>
      <g>
        <path class="cls-8" d="m57.84,8.03h5.63c1.11,0,2.01.32,2.7.95.68.63,1.03,1.52,1.03,2.66,0,.98-.31,1.84-.92,2.57-.61.73-1.55,1.09-2.8,1.09h-3.93v5.32h-1.7v-12.59Zm6.61,1.73c-.37-.18-.89-.27-1.54-.27h-3.37v4.36h3.37c.76,0,1.38-.16,1.85-.49.47-.33.71-.9.71-1.72,0-.93-.34-1.55-1.02-1.88Z"/>
        <path class="cls-8" d="m69.57,11.44h1.47v1.59c.12-.31.41-.68.88-1.13.47-.44,1.01-.66,1.62-.66.03,0,.08,0,.15,0,.07,0,.19.02.35.03v1.63c-.09-.02-.18-.03-.25-.03-.08,0-.16,0-.25,0-.78,0-1.37.25-1.79.75-.42.5-.63,1.08-.63,1.73v5.28h-1.54v-9.18Z"/>
        <path class="cls-8" d="m82.37,12.35c.81.79,1.22,1.95,1.22,3.48s-.36,2.7-1.07,3.66-1.82,1.45-3.33,1.45c-1.25,0-2.25-.43-2.99-1.28-.74-.85-1.11-2-1.11-3.44,0-1.54.39-2.77,1.17-3.68.78-.91,1.82-1.37,3.13-1.37,1.17,0,2.17.39,2.98,1.18Zm-.96,6.1c.38-.77.56-1.63.56-2.58,0-.86-.14-1.55-.41-2.09-.43-.84-1.17-1.27-2.22-1.27-.93,0-1.61.36-2.03,1.08-.42.72-.64,1.59-.64,2.6s.21,1.79.64,2.44c.42.65,1.1.98,2.02.98,1.01,0,1.7-.39,2.08-1.16Z"/>
        <path class="cls-8" d="m90.94,11.81c.29.2.59.49.89.87v-1.16h1.42v8.35c0,1.17-.17,2.08-.51,2.76-.64,1.25-1.84,1.87-3.61,1.87-.98,0-1.81-.22-2.48-.66-.67-.44-1.05-1.14-1.13-2.08h1.57c.07.41.22.73.44.95.35.34.89.51,1.64.51,1.18,0,1.95-.42,2.31-1.25.22-.49.32-1.37.3-2.63-.31.47-.68.82-1.11,1.05-.43.23-1,.34-1.72.34-.99,0-1.86-.35-2.6-1.06-.74-.71-1.11-1.87-1.11-3.5,0-1.54.37-2.74,1.12-3.6.75-.86,1.65-1.29,2.71-1.29.72,0,1.34.18,1.88.53Zm.19,1.65c-.47-.55-1.06-.82-1.78-.82-1.08,0-1.82.51-2.22,1.53-.21.54-.32,1.25-.32,2.13,0,1.03.21,1.82.63,2.36.42.54.98.81,1.68.81,1.1,0,1.88-.5,2.33-1.5.25-.57.38-1.23.38-1.98,0-1.14-.23-1.98-.7-2.53Z"/>
        <path class="cls-8" d="m95.99,11.44h1.47v1.59c.12-.31.41-.68.88-1.13.47-.44,1.01-.66,1.62-.66.03,0,.08,0,.15,0,.07,0,.19.02.35.03v1.63c-.09-.02-.18-.03-.25-.03-.08,0-.16,0-.25,0-.78,0-1.37.25-1.79.75-.42.5-.63,1.08-.63,1.73v5.28h-1.54v-9.18Z"/>
        <path class="cls-8" d="m107.06,15.06c.35-.05.59-.19.71-.44.07-.14.1-.34.1-.59,0-.53-.19-.91-.56-1.15-.37-.24-.91-.36-1.6-.36-.8,0-1.37.22-1.71.65-.19.24-.31.6-.37,1.08h-1.44c.03-1.13.4-1.92,1.1-2.37.7-.44,1.52-.67,2.45-.67,1.08,0,1.95.21,2.63.62.67.41,1,1.05,1,1.92v5.29c0,.16.03.29.1.39.07.1.2.15.42.15.07,0,.15,0,.23-.01.09,0,.18-.02.27-.04v1.14c-.24.07-.42.11-.55.13-.13.02-.3.03-.51.03-.53,0-.92-.19-1.16-.57-.13-.2-.21-.48-.27-.85-.31.41-.77.77-1.35,1.07-.59.3-1.24.45-1.94.45-.85,0-1.55-.26-2.09-.77-.54-.52-.81-1.16-.81-1.94,0-.85.27-1.51.8-1.98s1.23-.76,2.09-.86l2.46-.31Zm-3.25,4.17c.33.26.71.38,1.16.38.54,0,1.07-.13,1.58-.38.86-.42,1.29-1.1,1.29-2.04v-1.24c-.19.12-.43.22-.73.3-.3.08-.59.14-.87.17l-.93.12c-.56.07-.98.19-1.26.35-.48.27-.72.7-.72,1.28,0,.44.16.8.49,1.05Z"/>
        <path class="cls-8" d="m112.25,11.44h1.53v1.3c.37-.45.7-.78.99-.99.51-.35,1.09-.52,1.73-.52.73,0,1.32.18,1.76.54.25.21.48.51.69.91.34-.49.75-.86,1.21-1.09.46-.24.98-.36,1.56-.36,1.23,0,2.07.45,2.52,1.34.24.48.36,1.13.36,1.94v6.11h-1.6v-6.37c0-.61-.15-1.03-.46-1.26-.31-.23-.68-.34-1.12-.34-.61,0-1.13.2-1.56.61s-.66,1.08-.66,2.03v5.34h-1.57v-5.99c0-.62-.07-1.08-.22-1.36-.23-.43-.67-.64-1.31-.64-.58,0-1.11.23-1.59.68-.48.45-.72,1.27-.72,2.45v4.87h-1.54v-9.18Z"/>
        <path class="cls-8" d="m132.13,15.06c.35-.05.59-.19.71-.44.07-.14.1-.34.1-.59,0-.53-.19-.91-.56-1.15-.37-.24-.91-.36-1.6-.36-.8,0-1.37.22-1.71.65-.19.24-.31.6-.37,1.08h-1.44c.03-1.13.4-1.92,1.1-2.37.7-.44,1.52-.67,2.45-.67,1.08,0,1.95.21,2.63.62.67.41,1,1.05,1,1.92v5.29c0,.16.03.29.1.39.07.1.2.15.42.15.07,0,.15,0,.23-.01.09,0,.18-.02.27-.04v1.14c-.24.07-.42.11-.55.13-.13.02-.3.03-.51.03-.53,0-.92-.19-1.16-.57-.13-.2-.21-.48-.27-.85-.31.41-.77.77-1.35,1.07-.59.3-1.24.45-1.94.45-.85,0-1.55-.26-2.09-.77-.54-.52-.81-1.16-.81-1.94,0-.85.27-1.51.8-1.98s1.23-.76,2.09-.86l2.46-.31Zm-3.25,4.17c.33.26.71.38,1.16.38.54,0,1.07-.13,1.58-.38.86-.42,1.29-1.1,1.29-2.04v-1.24c-.19.12-.43.22-.73.3-.3.08-.59.14-.87.17l-.93.12c-.56.07-.98.19-1.26.35-.48.27-.72.7-.72,1.28,0,.44.16.8.49,1.05Z"/>
        <path class="cls-8" d="m69.14,32.12h-7.75v4.1h8.83v2.87h-12.09v-15.95h11.7v2.82h-8.44v3.39h7.75v2.77Z"/>
        <path class="cls-8" d="m83.22,31.52h-3.16c-.06-.44-.21-.84-.44-1.19-.35-.48-.88-.71-1.61-.71-1.04,0-1.75.52-2.13,1.55-.2.55-.3,1.28-.3,2.19s.1,1.56.3,2.09c.37.98,1.06,1.47,2.08,1.47.72,0,1.23-.19,1.54-.58.3-.39.49-.89.55-1.52h3.15c-.07.94-.41,1.83-1.02,2.66-.97,1.35-2.4,2.02-4.3,2.02s-3.29-.56-4.19-1.69c-.89-1.13-1.34-2.59-1.34-4.38,0-2.03.49-3.6,1.48-4.73.99-1.13,2.35-1.69,4.09-1.69,1.48,0,2.69.33,3.63,1,.94.66,1.5,1.84,1.67,3.52Z"/>
        <path class="cls-8" d="m95.62,28.78c1,1.25,1.49,2.72,1.49,4.43s-.5,3.21-1.49,4.44c-1,1.23-2.51,1.85-4.53,1.85s-3.54-.62-4.53-1.85c-1-1.23-1.49-2.71-1.49-4.44s.5-3.18,1.49-4.43c1-1.25,2.51-1.87,4.53-1.87s3.54.62,4.53,1.87Zm-4.55.74c-.9,0-1.6.32-2.08.96-.49.64-.73,1.55-.73,2.73s.24,2.1.73,2.74c.49.64,1.18.96,2.08.96s1.59-.32,2.08-.96c.48-.64.73-1.55.73-2.74s-.24-2.09-.73-2.73c-.48-.64-1.18-.96-2.08-.96Z"/>
        <path class="cls-8" d="m106.17,39.4c-.97,0-1.76-.19-2.35-.58-.35-.23-.74-.63-1.15-1.21v1.48h-3.02v-15.93h3.07v5.67c.39-.55.82-.97,1.29-1.26.56-.36,1.26-.54,2.12-.54,1.55,0,2.77.56,3.64,1.68.88,1.12,1.31,2.56,1.31,4.33s-.43,3.35-1.3,4.56c-.87,1.21-2.07,1.81-3.63,1.81Zm1.69-6.04c0-.84-.11-1.53-.32-2.08-.41-1.04-1.17-1.56-2.27-1.56s-1.89.51-2.31,1.53c-.22.54-.32,1.24-.32,2.1,0,1.01.22,1.85.67,2.51.45.66,1.13,1,2.05,1,.79,0,1.41-.32,1.85-.96.44-.64.66-1.49.66-2.53Z"/>
        <path class="cls-8" d="m114.19,28.57c.82-1.04,2.21-1.56,4.2-1.56,1.29,0,2.44.26,3.44.77,1,.51,1.5,1.48,1.5,2.9v5.41c0,.38,0,.83.02,1.36.02.4.08.68.18.82.1.14.25.26.45.36v.45h-3.35c-.09-.24-.16-.46-.19-.67-.04-.21-.06-.45-.09-.71-.43.46-.92.85-1.47,1.18-.66.38-1.41.57-2.25.57-1.07,0-1.95-.3-2.65-.91-.7-.61-1.04-1.47-1.04-2.59,0-1.45.56-2.5,1.68-3.15.61-.35,1.52-.61,2.71-.76l1.05-.13c.57-.07.98-.16,1.22-.27.44-.19.66-.48.66-.88,0-.48-.17-.82-.5-1-.34-.18-.83-.28-1.48-.28-.73,0-1.24.18-1.55.54-.22.27-.36.63-.43,1.08h-2.98c.06-1.03.35-1.88.87-2.54Zm2.29,8.29c.29.24.64.36,1.06.36.66,0,1.28-.19,1.83-.58.56-.39.85-1.1.87-2.13v-1.15c-.19.12-.39.22-.59.3-.2.08-.47.15-.82.21l-.69.13c-.65.12-1.11.26-1.4.42-.48.28-.71.72-.71,1.31,0,.53.15.91.44,1.14Z"/>
        <path class="cls-8" d="m132.45,30.13c-1.24,0-2.07.4-2.5,1.21-.24.45-.36,1.15-.36,2.1v5.64h-3.11v-11.8h2.94v2.06c.48-.79.89-1.32,1.24-1.61.58-.48,1.33-.73,2.25-.73.06,0,.11,0,.15,0,.04,0,.13,0,.27.02v3.16c-.19-.02-.37-.04-.52-.04-.15,0-.27-.01-.37-.01Z"/>
        <path class="cls-8" d="m141.51,30.13c-1.24,0-2.07.4-2.5,1.21-.24.45-.36,1.15-.36,2.1v5.64h-3.11v-11.8h2.94v2.06c.48-.79.89-1.32,1.24-1.61.58-.48,1.33-.73,2.25-.73.06,0,.11,0,.15,0,.04,0,.13,0,.27.02v3.16c-.19-.02-.37-.04-.52-.04-.15,0-.27-.01-.37-.01Z"/>
        <path class="cls-8" d="m147.82,23.03v2.85h-3.13v-2.85h3.13Zm0,4.25v11.8h-3.13v-11.8h3.13Z"/>
        <path class="cls-8" d="m161.09,28.78c1,1.25,1.49,2.72,1.49,4.43s-.5,3.21-1.49,4.44c-1,1.23-2.51,1.85-4.53,1.85s-3.54-.62-4.53-1.85c-1-1.23-1.49-2.71-1.49-4.44s.5-3.18,1.49-4.43c1-1.25,2.51-1.87,4.53-1.87s3.54.62,4.53,1.87Zm-4.55.74c-.9,0-1.6.32-2.08.96-.49.64-.73,1.55-.73,2.73s.24,2.1.73,2.74c.49.64,1.18.96,2.08.96s1.59-.32,2.08-.96c.48-.64.73-1.55.73-2.74s-.24-2.09-.73-2.73c-.48-.64-1.18-.96-2.08-.96Z"/>
        <path class="cls-8" d="m173.36,27.83c.92.59,1.45,1.61,1.59,3.05h-3.08c-.04-.4-.16-.71-.34-.94-.34-.42-.92-.63-1.73-.63-.67,0-1.15.1-1.43.31-.29.21-.43.45-.43.74,0,.35.15.61.45.77.3.17,1.37.45,3.21.86,1.23.29,2.15.73,2.76,1.31.61.59.91,1.33.91,2.22,0,1.17-.43,2.12-1.3,2.86-.87.74-2.21,1.11-4.03,1.11s-3.22-.39-4.11-1.17c-.88-.78-1.33-1.78-1.33-2.99h3.13c.06.55.21.94.42,1.17.38.41,1.09.62,2.12.62.61,0,1.09-.09,1.44-.27.36-.18.54-.45.54-.81s-.14-.61-.43-.79c-.29-.18-1.36-.49-3.21-.93-1.33-.33-2.28-.75-2.82-1.24-.55-.49-.82-1.2-.82-2.12,0-1.09.43-2.03,1.28-2.81.85-.78,2.06-1.17,3.61-1.17s2.67.29,3.6.88Z"/>
        <path class="cls-8" d="m63.82,55.25c.79,0,1.42-.09,1.92-.26.93-.33,1.4-.95,1.4-1.85,0-.53-.23-.93-.69-1.22-.46-.28-1.19-.53-2.18-.75l-1.69-.38c-1.66-.37-2.81-.78-3.44-1.22-1.08-.74-1.61-1.89-1.61-3.45,0-1.43.52-2.62,1.56-3.56,1.04-.95,2.56-1.42,4.58-1.42,1.68,0,3.11.45,4.3,1.34,1.19.89,1.81,2.18,1.87,3.88h-3.2c-.06-.96-.48-1.64-1.26-2.05-.52-.27-1.17-.4-1.94-.4-.86,0-1.54.17-2.06.52-.51.35-.77.83-.77,1.45,0,.57.25,1,.76,1.28.32.19,1.02.41,2.08.66l2.75.66c1.2.29,2.11.67,2.73,1.16.95.75,1.43,1.84,1.43,3.26s-.56,2.67-1.67,3.63c-1.11.96-2.69,1.44-4.72,1.44s-3.71-.47-4.9-1.42c-1.19-.95-1.79-2.25-1.79-3.91h3.18c.1.73.3,1.27.6,1.63.54.66,1.47.98,2.78.98Z"/>
        <path class="cls-8" d="m73.45,47.04c.82-1.04,2.21-1.56,4.2-1.56,1.29,0,2.44.26,3.44.77,1,.51,1.5,1.48,1.5,2.9v5.41c0,.38,0,.83.02,1.36.02.4.08.68.18.82.1.14.25.26.45.36v.45h-3.35c-.09-.24-.16-.46-.19-.67-.04-.21-.06-.45-.09-.71-.43.46-.92.85-1.47,1.18-.66.38-1.41.57-2.25.57-1.07,0-1.95-.3-2.65-.91-.7-.61-1.04-1.47-1.04-2.59,0-1.45.56-2.5,1.68-3.15.61-.35,1.52-.61,2.71-.76l1.05-.13c.57-.07.98-.16,1.22-.27.44-.19.66-.48.66-.88,0-.48-.17-.82-.5-1-.34-.18-.83-.28-1.48-.28-.73,0-1.24.18-1.55.54-.22.27-.36.63-.43,1.08h-2.98c.06-1.03.35-1.88.87-2.54Zm2.29,8.29c.29.24.64.36,1.06.36.66,0,1.28-.19,1.83-.58.56-.39.85-1.1.87-2.13v-1.15c-.19.12-.39.22-.59.3-.2.08-.47.15-.82.21l-.69.13c-.65.12-1.11.26-1.4.42-.48.28-.71.72-.71,1.31,0,.53.15.91.44,1.14Z"/>
        <path class="cls-8" d="m91.33,48.04c-1.05,0-1.76.44-2.15,1.33-.2.47-.3,1.07-.3,1.8v6.39h-3.07v-11.77h2.98v1.72c.4-.61.77-1.04,1.13-1.31.63-.48,1.44-.71,2.41-.71,1.22,0,2.22.32,2.99.96.78.64,1.16,1.7,1.16,3.18v7.94h-3.16v-7.18c0-.62-.08-1.1-.25-1.43-.3-.61-.88-.91-1.73-.91Z"/>
        <path class="cls-8" d="m105.16,55.36v2.31l-1.46.05c-1.46.05-2.45-.2-2.99-.76-.35-.35-.52-.9-.52-1.63v-7.26h-1.65v-2.2h1.65v-3.29h3.05v3.29h1.92v2.2h-1.92v6.23c0,.48.06.78.18.9.12.12.5.18,1.13.18.09,0,.19,0,.3,0,.1,0,.21,0,.31-.02Z"/>
        <path class="cls-8" d="m110.76,41.51v2.85h-3.13v-2.85h3.13Zm0,4.25v11.8h-3.13v-11.8h3.13Z"/>
        <path class="cls-8" d="m114.63,47.04c.82-1.04,2.21-1.56,4.2-1.56,1.29,0,2.44.26,3.44.77,1,.51,1.5,1.48,1.5,2.9v5.41c0,.38,0,.83.02,1.36.02.4.08.68.18.82.1.14.25.26.45.36v.45h-3.35c-.09-.24-.16-.46-.19-.67-.04-.21-.06-.45-.09-.71-.43.46-.92.85-1.47,1.18-.66.38-1.41.57-2.25.57-1.07,0-1.95-.3-2.65-.91-.7-.61-1.04-1.47-1.04-2.59,0-1.45.56-2.5,1.68-3.15.61-.35,1.52-.61,2.71-.76l1.05-.13c.57-.07.98-.16,1.22-.27.44-.19.66-.48.66-.88,0-.48-.17-.82-.5-1-.34-.18-.83-.28-1.48-.28-.73,0-1.24.18-1.55.54-.22.27-.36.63-.43,1.08h-2.98c.06-1.03.35-1.88.87-2.54Zm2.29,8.29c.29.24.64.36,1.06.36.66,0,1.28-.19,1.83-.58.56-.39.85-1.1.87-2.13v-1.15c-.19.12-.39.22-.59.3-.2.08-.47.15-.82.21l-.69.13c-.65.12-1.11.26-1.4.42-.48.28-.71.72-.71,1.31,0,.53.15.91.44,1.14Z"/>
        <path class="cls-8" d="m130.29,59.62c.33.28.89.42,1.68.42,1.11,0,1.85-.37,2.23-1.11.25-.48.37-1.28.37-2.4v-.76c-.3.51-.61.88-.95,1.14-.61.47-1.41.7-2.39.7-1.52,0-2.73-.53-3.63-1.6-.91-1.06-1.36-2.51-1.36-4.32s.44-3.23,1.31-4.42c.87-1.19,2.11-1.79,3.71-1.79.59,0,1.11.09,1.55.27.75.31,1.36.88,1.82,1.71v-1.7h3v11.19c0,1.52-.26,2.67-.77,3.44-.88,1.33-2.57,1.99-5.06,1.99-1.51,0-2.74-.3-3.69-.89-.95-.59-1.48-1.48-1.58-2.65h3.35c.09.36.23.62.42.78Zm-.52-6.09c.42,1,1.17,1.49,2.25,1.49.72,0,1.33-.27,1.83-.82.5-.54.75-1.41.75-2.6,0-1.12-.24-1.97-.71-2.55-.47-.58-1.11-.88-1.9-.88-1.08,0-1.83.51-2.24,1.53-.22.54-.32,1.21-.32,2,0,.69.12,1.3.35,1.83Z"/>
        <path class="cls-8" d="m150.78,47.25c1,1.25,1.49,2.72,1.49,4.43s-.5,3.21-1.49,4.44c-1,1.23-2.51,1.85-4.53,1.85s-3.54-.62-4.53-1.85c-1-1.23-1.49-2.71-1.49-4.44s.5-3.18,1.49-4.43c1-1.25,2.51-1.87,4.53-1.87s3.54.62,4.53,1.87Zm-4.55.74c-.9,0-1.6.32-2.08.96-.49.64-.73,1.55-.73,2.73s.24,2.1.73,2.74c.49.64,1.18.96,2.08.96s1.59-.32,2.08-.96c.48-.64.73-1.55.73-2.74s-.24-2.09-.73-2.73c-.48-.64-1.18-.96-2.08-.96Z"/>
      </g>
    </g>
  </g>
</svg>