<?xml version="1.0" encoding="UTF-8"?>
<svg id="Capa_2" data-name="Capa 2" xmlns="http://www.w3.org/2000/svg" viewBox="0 0 708 27.57">
  <defs>
    <style>
      .cls-1 {
        fill: #844315;
      }

      .cls-2 {
        fill: #fff;
      }

      .cls-3 {
        fill: #92d050;
      }

      .cls-4 {
        fill: #027954;
      }

      .cls-5 {
        fill: #e84810;
      }

      .cls-6 {
        fill: #7348f5;
      }

      .cls-7 {
        fill: #6a4593;
      }

      .cls-8 {
        fill: #3b98d4;
      }

      .cls-9 {
        fill: #4cad33;
      }

      .cls-10 {
        fill: #f8ab2c;
      }

      .cls-11 {
        fill: #1c1a1c;
      }

      .cls-12 {
        fill: #ffac24;
      }

      .cls-13 {
        fill: #93c352;
      }

      .cls-14 {
        fill: #f8eede;
      }
    </style>
  </defs>
  <g id="Capa_1-2" data-name="Capa 1">
    <g>
      <g>
        <rect class="cls-5" x="59.07" width="27.57" height="27.57"/>
        <path class="cls-2" d="m59.07,0h0c7.61,0,13.78,6.17,13.78,13.78h0s0,0,0,0C65.24,13.78,59.07,7.61,59.07,0h0Z"/>
        <path class="cls-12" d="m86.64,0h0c0,7.61-6.17,13.78-13.78,13.78h0C72.86,6.17,79.03,0,86.64,0Z"/>
        <path class="cls-2" d="m72.86,13.78h0c0,7.61-6.17,13.78-13.78,13.78h0c0-7.61,6.17-13.78,13.78-13.78Z"/>
        <path class="cls-12" d="m72.86,13.78h0c7.61,0,13.78,6.17,13.78,13.78h0s0,0,0,0c-7.61,0-13.78-6.17-13.78-13.78h0Z"/>
      </g>
      <g>
        <rect class="cls-12" x="29.54" width="27.57" height="27.57"/>
        <rect class="cls-2" x="36.65" y="6.89" width="4.83" height="4.83" rx="2.41" ry="2.41"/>
        <rect class="cls-2" x="45.16" y="6.89" width="4.83" height="4.83" rx="2.41" ry="2.41"/>
      </g>
      <g>
        <path class="cls-6" d="m0,0h27.57v27.57h0C12.34,27.57,0,15.23,0,0h0Z"/>
        <rect class="cls-2" x="19.41" y="4.48" width="4.83" height="4.83" rx="2.41" ry="2.41"/>
      </g>
      <g>
        <rect class="cls-8" x="118.29" width="27.57" height="27.57"/>
        <path class="cls-2" d="m137.2,16.25c0,4.28-2.38,6.16-5.32,6.16s-5.32-1.88-5.32-6.16,5.32-10.29,5.32-10.29c0,0,5.32,6.01,5.32,10.29Z"/>
      </g>
      <g>
        <path class="cls-10" d="m147.82,27.57V0h0c15.23,0,27.57,12.34,27.57,27.57h0s-27.57,0-27.57,0Z"/>
        <path class="cls-5" d="m170.8,27.57h0s-22.97,0-22.97,0V4.59h0c12.69,0,22.97,10.29,22.97,22.97Z"/>
        <path class="cls-7" d="m159.31,27.57h0s-11.49,0-11.49,0v-11.49h0c6.34,0,11.49,5.14,11.49,11.49Z"/>
      </g>
      <g>
        <rect class="cls-5" x="88.75" y="0" width="27.57" height="27.57" rx="13.78" ry="13.78"/>
        <circle class="cls-10" cx="102.54" cy="13.78" r="8.24"/>
      </g>
      <g>
        <rect class="cls-9" x="206.75" width="27.57" height="27.57"/>
        <path class="cls-2" d="m206.75,0h0c7.61,0,13.78,6.17,13.78,13.78h0s0,0,0,0C212.92,13.78,206.75,7.61,206.75,0h0Z"/>
        <path class="cls-13" d="m234.32,0h0c0,7.61-6.17,13.78-13.78,13.78h0C220.53,6.17,226.7,0,234.32,0Z"/>
        <path class="cls-2" d="m220.53,13.78h0c0,7.61-6.17,13.78-13.78,13.78h0c0-7.61,6.17-13.78,13.78-13.78Z"/>
        <path class="cls-13" d="m220.53,13.78h0c7.61,0,13.78,6.17,13.78,13.78h0s0,0,0,0c-7.61,0-13.78-6.17-13.78-13.78h0Z"/>
      </g>
      <g>
        <rect class="cls-1" x="177.21" width="27.57" height="27.57"/>
        <rect class="cls-2" x="184.33" y="6.89" width="4.83" height="4.83" rx="2.41" ry="2.41"/>
        <rect class="cls-2" x="192.84" y="6.89" width="4.83" height="4.83" rx="2.41" ry="2.41"/>
      </g>
      <g>
        <rect class="cls-7" x="236.43" y="0" width="27.57" height="27.57" rx="13.78" ry="13.78"/>
        <circle class="cls-8" cx="250.21" cy="13.78" r="8.24"/>
      </g>
      <g>
        <rect class="cls-13" x="266.11" width="27.57" height="27.57"/>
        <path class="cls-2" d="m293.68,0h0c0,7.61-6.17,13.78-13.78,13.78h0C279.89,6.17,286.06,0,293.68,0h0Z"/>
        <path class="cls-9" d="m293.68,27.57h0s0,0,0,0c-7.61,0-13.78-6.17-13.78-13.78h0s0,0,0,0c7.61,0,13.78,6.17,13.78,13.78Z"/>
        <path class="cls-2" d="m279.89,13.78h0s0,0,0,0c-7.61,0-13.78-6.17-13.78-13.78h0s0,0,0,0c7.61,0,13.78,6.17,13.78,13.78Z"/>
        <path class="cls-10" d="m279.89,13.78h0c0,7.61-6.17,13.78-13.78,13.78h0c0-7.61,6.17-13.78,13.78-13.78h0Z"/>
      </g>
      <path class="cls-13" d="m352.75.31c0-.17-.14-.31-.31-.31h-27.26c0,4.06.88,7.91,2.45,11.37.07.16.26.23.42.15l2.05-.96c.32-.15.61.27.34.51l-1.85,1.7c-.11.1-.13.25-.06.38,1.33,2.45,3.02,4.67,5.01,6.6.12.12.32.12.44,0l1.68-1.75c.25-.26.66.04.51.36l-1.19,2.4c-.06.13-.03.29.08.38,2.12,1.78,4.52,3.24,7.11,4.32.16.07.35-.01.41-.18l.82-2.11c.13-.33.63-.22.6.13l-.16,2.54c0,.14.08.27.21.32,2.73.91,5.66,1.4,8.7,1.4h0V.31Z"/>
      <g>
        <path class="cls-9" d="m295.64,0h27.57c0,15.23-12.34,27.57-27.57,27.57h0V0Z"/>
        <path class="cls-5" d="m295.64,22.97h0V0h22.97c0,12.69-10.29,22.97-22.97,22.97Z"/>
        <path class="cls-2" d="m295.64,11.49h0V0s11.49,0,11.49,0h0c0,6.34-5.14,11.49-11.49,11.49Z"/>
        <rect class="cls-11" x="305.23" y="9.31" width="4.83" height="4.83" rx="2.41" ry="2.41"/>
      </g>
      <g>
        <rect class="cls-8" x="384.79" width="27.57" height="27.57"/>
        <path class="cls-2" d="m403.7,16.25c0,4.28-2.38,6.16-5.32,6.16s-5.32-1.88-5.32-6.16,5.32-10.29,5.32-10.29c0,0,5.32,6.01,5.32,10.29Z"/>
      </g>
      <g>
        <path class="cls-9" d="m414.32,27.57V0h0c15.23,0,27.57,12.34,27.57,27.57h0s-27.57,0-27.57,0Z"/>
        <path class="cls-13" d="m437.3,27.57h0s-22.97,0-22.97,0V4.59h0c12.69,0,22.97,10.29,22.97,22.97Z"/>
        <path class="cls-4" d="m425.81,27.57h0s-11.49,0-11.49,0v-11.49h0c6.34,0,11.49,5.14,11.49,11.49Z"/>
      </g>
      <g>
        <rect class="cls-9" x="355.25" y="0" width="27.57" height="27.57" rx="13.78" ry="13.78"/>
        <circle class="cls-13" cx="369.04" cy="13.78" r="8.24"/>
      </g>
      <g>
        <rect class="cls-7" x="473.54" y="0" width="27.57" height="27.57" rx="13.78" ry="13.78"/>
        <rect class="cls-14" x="481.12" y="14.46" width="4.83" height="4.83" rx="2.41" ry="2.41"/>
        <rect class="cls-14" x="488.7" y="14.46" width="4.83" height="4.83" rx="2.41" ry="2.41"/>
        <rect class="cls-14" x="484.71" y="8.27" width="4.83" height="4.83" rx="2.41" ry="2.41"/>
      </g>
      <g>
        <rect class="cls-3" x="444" width="27.57" height="27.57"/>
        <g>
          <rect class="cls-9" x="444" y="4.01" width="27.57" height="1.36"/>
          <rect class="cls-9" x="444" y="8.55" width="27.57" height="1.36"/>
          <rect class="cls-9" x="444" y="13.1" width="27.57" height="1.36"/>
          <rect class="cls-9" x="444" y="17.65" width="27.57" height="1.36"/>
          <rect class="cls-9" x="444" y="22.2" width="27.57" height="1.36"/>
        </g>
      </g>
      <path class="cls-10" d="m503.39,0c-.17,0-.31.14-.31.31v27.26h0c4.06,0,7.91-.88,11.37-2.45.16-.07.23-.26.15-.42l-.96-2.05c-.15-.32.27-.61.51-.34l1.7,1.85c.1.11.25.13.38.06,2.45-1.33,4.67-3.02,6.6-5.01.12-.12.12-.32,0-.44l-1.75-1.68c-.26-.25.04-.66.36-.51l2.4,1.19c.13.06.29.03.38-.08,1.78-2.12,3.24-4.52,4.32-7.11.07-.16-.01-.35-.18-.41l-2.11-.82c-.33-.13-.22-.63.13-.6l2.54.16c.14,0,.27-.08.32-.21.91-2.73,1.4-5.66,1.4-8.7h-27.26Z"/>
      <g>
        <rect class="cls-13" x="532.46" width="27.57" height="27.57"/>
        <path class="cls-2" d="m551.38,16.25c0,4.28-2.38,6.16-5.32,6.16s-5.32-1.88-5.32-6.16,5.32-10.29,5.32-10.29c0,0,5.32,6.01,5.32,10.29Z"/>
      </g>
      <g>
        <path class="cls-1" d="m562,27.57V0h0c15.23,0,27.57,12.34,27.57,27.57h0s-27.57,0-27.57,0Z"/>
        <path class="cls-9" d="m584.97,27.57h0s-22.97,0-22.97,0V4.59h0c12.69,0,22.97,10.29,22.97,22.97Z"/>
        <path class="cls-13" d="m573.49,27.57h0s-11.49,0-11.49,0v-11.49h0c6.34,0,11.49,5.14,11.49,11.49Z"/>
      </g>
      <g>
        <rect class="cls-3" x="591.68" width="27.57" height="27.57"/>
        <g>
          <rect class="cls-9" x="595.69" width="1.36" height="27.57"/>
          <rect class="cls-9" x="600.23" width="1.36" height="27.57"/>
          <rect class="cls-9" x="604.78" width="1.36" height="27.57"/>
          <rect class="cls-9" x="609.33" width="1.36" height="27.57"/>
          <rect class="cls-9" x="613.88" width="1.36" height="27.57"/>
        </g>
      </g>
      <g>
        <rect class="cls-10" x="680.43" y="0" width="27.57" height="27.57" rx="13.78" ry="13.78"/>
        <rect class="cls-1" x="688.01" y="14.46" width="4.83" height="4.83" rx="2.41" ry="2.41"/>
        <rect class="cls-1" x="695.59" y="14.46" width="4.83" height="4.83" rx="2.41" ry="2.41"/>
        <rect class="cls-1" x="691.6" y="8.27" width="4.83" height="4.83" rx="2.41" ry="2.41"/>
      </g>
      <g>
        <rect class="cls-7" x="650.9" width="27.57" height="27.57"/>
        <path class="cls-13" d="m669.81,16.25c0,4.28-2.38,6.16-5.32,6.16s-5.32-1.88-5.32-6.16,5.32-10.29,5.32-10.29c0,0,5.32,6.01,5.32,10.29Z"/>
      </g>
      <rect class="cls-12" x="621.36" width="27.57" height="27.57"/>
    </g>
  </g>
</svg>