<?xml version="1.0" encoding="UTF-8"?>
<svg id="Capa_2" data-name="Capa 2" xmlns="http://www.w3.org/2000/svg" viewBox="0 0 1742 67.83">
  <defs>
    <style>
      .cls-1 {
        fill: #844315;
      }

      .cls-2 {
        fill: #fff;
      }

      .cls-3 {
        fill: #92d050;
      }

      .cls-4 {
        fill: #027954;
      }

      .cls-5 {
        fill: #e84810;
      }

      .cls-6 {
        fill: #7348f5;
      }

      .cls-7 {
        fill: #6a4593;
      }

      .cls-8 {
        fill: #3b98d4;
      }

      .cls-9 {
        fill: #4cad33;
      }

      .cls-10 {
        fill: #f8ab2c;
      }

      .cls-11 {
        fill: #1c1a1c;
      }

      .cls-12 {
        fill: #ffac24;
      }

      .cls-13 {
        fill: #93c352;
      }

      .cls-14 {
        fill: #f8eede;
      }
    </style>
  </defs>
  <g id="Capa_1-2" data-name="Capa 1">
    <g>
      <g>
        <rect class="cls-5" x="145.34" width="67.83" height="67.83"/>
        <path class="cls-2" d="m145.34,0h0c18.73,0,33.92,15.18,33.92,33.92h0s0,0,0,0C160.53,33.92,145.34,18.73,145.34,0h0Z"/>
        <path class="cls-12" d="m213.17,0h0c0,18.73-15.18,33.92-33.92,33.92h0C179.26,15.18,194.44,0,213.17,0Z"/>
        <path class="cls-2" d="m179.26,33.92h0c0,18.73-15.18,33.92-33.92,33.92h0c0-18.73,15.18-33.92,33.92-33.92Z"/>
        <path class="cls-12" d="m179.26,33.92h0c18.73,0,33.92,15.18,33.92,33.92h0s0,0,0,0c-18.73,0-33.92-15.18-33.92-33.92h0Z"/>
      </g>
      <g>
        <rect class="cls-12" x="72.67" width="67.83" height="67.83"/>
        <rect class="cls-2" x="90.18" y="16.96" width="11.88" height="11.88" rx="5.94" ry="5.94"/>
        <rect class="cls-2" x="111.11" y="16.96" width="11.88" height="11.88" rx="5.94" ry="5.94"/>
      </g>
      <g>
        <path class="cls-6" d="m0,0h67.83v67.83h0C30.37,67.83,0,37.46,0,0h0Z"/>
        <rect class="cls-2" x="47.76" y="11.02" width="11.88" height="11.88" rx="5.94" ry="5.94"/>
      </g>
      <g>
        <rect class="cls-8" x="291.04" width="67.83" height="67.83"/>
        <path class="cls-2" d="m337.57,39.98c0,10.53-5.87,15.16-13.1,15.16s-13.1-4.63-13.1-15.16,13.1-25.32,13.1-25.32c0,0,13.1,14.79,13.1,25.32Z"/>
      </g>
      <g>
        <path class="cls-10" d="m363.71,67.83V0h0c37.46,0,67.83,30.37,67.83,67.83h0s-67.83,0-67.83,0Z"/>
        <path class="cls-5" d="m420.24,67.83h0s-56.53,0-56.53,0V11.31h0c31.22,0,56.53,25.31,56.53,56.53Z"/>
        <path class="cls-7" d="m391.97,67.83h0s-28.26,0-28.26,0v-28.26h0c15.61,0,28.26,12.65,28.26,28.26Z"/>
      </g>
      <g>
        <rect class="cls-5" x="218.37" y="0" width="67.83" height="67.83" rx="33.92" ry="33.92"/>
        <circle class="cls-10" cx="252.28" cy="33.92" r="20.27"/>
      </g>
      <g>
        <rect class="cls-9" x="508.69" width="67.83" height="67.83"/>
        <path class="cls-2" d="m508.69,0h0c18.73,0,33.92,15.18,33.92,33.92h0s0,0,0,0C523.88,33.92,508.69,18.73,508.69,0h0Z"/>
        <path class="cls-13" d="m576.52,0h0c0,18.73-15.18,33.92-33.92,33.92h0C542.61,15.18,557.79,0,576.52,0Z"/>
        <path class="cls-2" d="m542.61,33.92h0c0,18.73-15.18,33.92-33.92,33.92h0c0-18.73,15.18-33.92,33.92-33.92Z"/>
        <path class="cls-13" d="m542.61,33.92h0c18.73,0,33.92,15.18,33.92,33.92h0s0,0,0,0c-18.73,0-33.92-15.18-33.92-33.92h0Z"/>
      </g>
      <g>
        <rect class="cls-1" x="436.02" width="67.83" height="67.83"/>
        <rect class="cls-2" x="453.53" y="16.96" width="11.88" height="11.88" rx="5.94" ry="5.94"/>
        <rect class="cls-2" x="474.46" y="16.96" width="11.88" height="11.88" rx="5.94" ry="5.94"/>
      </g>
      <g>
        <rect class="cls-7" x="581.72" y="0" width="67.83" height="67.83" rx="33.92" ry="33.92"/>
        <circle class="cls-8" cx="615.64" cy="33.92" r="20.27"/>
      </g>
      <g>
        <rect class="cls-13" x="654.75" width="67.83" height="67.83"/>
        <path class="cls-2" d="m722.58,0h0c0,18.73-15.18,33.92-33.92,33.92h0C688.66,15.18,703.85,0,722.58,0h0Z"/>
        <path class="cls-9" d="m722.58,67.83h0s0,0,0,0c-18.73,0-33.92-15.18-33.92-33.92h0s0,0,0,0c18.73,0,33.92,15.18,33.92,33.92Z"/>
        <path class="cls-2" d="m688.66,33.92h0s0,0,0,0c-18.73,0-33.92-15.18-33.92-33.92h0s0,0,0,0c18.73,0,33.92,15.18,33.92,33.92Z"/>
        <path class="cls-10" d="m688.66,33.92h0c0,18.73-15.18,33.92-33.92,33.92h0c0-18.73,15.18-33.92,33.92-33.92h0Z"/>
      </g>
      <path class="cls-13" d="m867.92.77c0-.42-.34-.77-.77-.77h-67.06c0,9.98,2.16,19.45,6.03,27.99.18.39.64.56,1.03.38l5.04-2.35c.8-.37,1.49.67.85,1.26l-4.55,4.19c-.26.24-.33.63-.16.94,3.28,6.02,7.44,11.49,12.32,16.23.31.3.8.29,1.09-.02l4.14-4.3c.61-.63,1.63.09,1.24.87l-2.92,5.9c-.16.32-.08.71.19.94,5.22,4.37,11.11,7.98,17.49,10.63.4.17.86-.03,1.01-.44l2.01-5.19c.32-.82,1.54-.55,1.48.33l-.39,6.25c-.02.35.19.67.53.78,6.73,2.23,13.92,3.45,21.4,3.45h0V.77Z"/>
      <g>
        <path class="cls-9" d="m727.42,0h67.83c0,37.46-30.37,67.83-67.83,67.83h0V0Z"/>
        <path class="cls-5" d="m727.42,56.53h0V0h56.53c0,31.22-25.31,56.53-56.53,56.53Z"/>
        <path class="cls-2" d="m727.42,28.26h0V0s28.26,0,28.26,0h0c0,15.61-12.65,28.26-28.26,28.26Z"/>
        <rect class="cls-11" x="751" y="22.9" width="11.88" height="11.88" rx="5.94" ry="5.94"/>
      </g>
      <g>
        <rect class="cls-8" x="946.75" width="67.83" height="67.83"/>
        <path class="cls-2" d="m993.28,39.98c0,10.53-5.87,15.16-13.1,15.16s-13.1-4.63-13.1-15.16,13.1-25.32,13.1-25.32c0,0,13.1,14.79,13.1,25.32Z"/>
      </g>
      <g>
        <path class="cls-9" d="m1019.42,67.83V0h0c37.46,0,67.83,30.37,67.83,67.83h0s-67.83,0-67.83,0Z"/>
        <path class="cls-13" d="m1075.95,67.83h0s-56.53,0-56.53,0V11.31h0c31.22,0,56.53,25.31,56.53,56.53Z"/>
        <path class="cls-4" d="m1047.68,67.83h0s-28.26,0-28.26,0v-28.26h0c15.61,0,28.26,12.65,28.26,28.26Z"/>
      </g>
      <g>
        <rect class="cls-9" x="874.08" y="0" width="67.83" height="67.83" rx="33.92" ry="33.92"/>
        <circle class="cls-13" cx="907.99" cy="33.92" r="20.27"/>
      </g>
      <g>
        <rect class="cls-7" x="1165.12" y="0" width="67.83" height="67.83" rx="33.92" ry="33.92"/>
        <rect class="cls-14" x="1183.77" y="35.59" width="11.88" height="11.88" rx="5.94" ry="5.94"/>
        <rect class="cls-14" x="1202.42" y="35.59" width="11.88" height="11.88" rx="5.94" ry="5.94"/>
        <rect class="cls-14" x="1192.61" y="20.36" width="11.88" height="11.88" rx="5.94" ry="5.94"/>
      </g>
      <g>
        <rect class="cls-3" x="1092.45" width="67.83" height="67.83"/>
        <g>
          <rect class="cls-9" x="1092.45" y="9.86" width="67.83" height="3.36"/>
          <rect class="cls-9" x="1092.45" y="21.05" width="67.83" height="3.36"/>
          <rect class="cls-9" x="1092.45" y="32.24" width="67.83" height="3.36"/>
          <rect class="cls-9" x="1092.45" y="43.43" width="67.83" height="3.36"/>
          <rect class="cls-9" x="1092.45" y="54.62" width="67.83" height="3.36"/>
        </g>
      </g>
      <path class="cls-10" d="m1238.56,0c-.42,0-.77.34-.77.77v67.06h0c9.98,0,19.45-2.16,27.99-6.03.39-.18.56-.64.38-1.03l-2.35-5.04c-.37-.8.67-1.49,1.26-.85l4.19,4.55c.24.26.63.33.94.16,6.02-3.28,11.49-7.44,16.23-12.32.3-.31.29-.8-.02-1.09l-4.3-4.14c-.63-.61.09-1.63.87-1.24l5.9,2.92c.32.16.71.08.94-.19,4.37-5.22,7.98-11.11,10.63-17.49.17-.4-.03-.86-.44-1.01l-5.19-2.01c-.82-.32-.55-1.54.33-1.48l6.25.39c.35.02.67-.19.78-.53,2.23-6.73,3.45-13.92,3.45-21.4h-67.06Z"/>
      <g>
        <rect class="cls-13" x="1310.1" width="67.83" height="67.83"/>
        <path class="cls-2" d="m1356.63,39.98c0,10.53-5.87,15.16-13.1,15.16s-13.1-4.63-13.1-15.16,13.1-25.32,13.1-25.32c0,0,13.1,14.79,13.1,25.32Z"/>
      </g>
      <g>
        <path class="cls-1" d="m1382.77,67.83V0h0c37.46,0,67.83,30.37,67.83,67.83h0s-67.83,0-67.83,0Z"/>
        <path class="cls-9" d="m1439.3,67.83h0s-56.53,0-56.53,0V11.31h0c31.22,0,56.53,25.31,56.53,56.53Z"/>
        <path class="cls-13" d="m1411.03,67.83h0s-28.26,0-28.26,0v-28.26h0c15.61,0,28.26,12.65,28.26,28.26Z"/>
      </g>
      <g>
        <rect class="cls-3" x="1455.8" width="67.83" height="67.83"/>
        <g>
          <rect class="cls-9" x="1465.66" width="3.36" height="67.83"/>
          <rect class="cls-9" x="1476.85" width="3.36" height="67.83"/>
          <rect class="cls-9" x="1488.04" width="3.36" height="67.83"/>
          <rect class="cls-9" x="1499.23" width="3.36" height="67.83"/>
          <rect class="cls-9" x="1510.42" width="3.36" height="67.83"/>
        </g>
      </g>
      <g>
        <rect class="cls-10" x="1674.17" y="0" width="67.83" height="67.83" rx="33.92" ry="33.92"/>
        <rect class="cls-1" x="1692.82" y="35.59" width="11.88" height="11.88" rx="5.94" ry="5.94"/>
        <rect class="cls-1" x="1711.47" y="35.59" width="11.88" height="11.88" rx="5.94" ry="5.94"/>
        <rect class="cls-1" x="1701.66" y="20.36" width="11.88" height="11.88" rx="5.94" ry="5.94"/>
      </g>
      <g>
        <rect class="cls-7" x="1601.5" width="67.83" height="67.83"/>
        <path class="cls-13" d="m1648.03,39.98c0,10.53-5.87,15.16-13.1,15.16s-13.1-4.63-13.1-15.16,13.1-25.32,13.1-25.32c0,0,13.1,14.79,13.1,25.32Z"/>
      </g>
      <rect class="cls-12" x="1528.83" width="67.83" height="67.83"/>
    </g>
  </g>
</svg>