<?xml version="1.0" encoding="UTF-8"?>
<svg id="Capa_2" data-name="Capa 2" xmlns="http://www.w3.org/2000/svg" viewBox="0 0 235.8 57.55">
  <defs>
    <style>
      .cls-1 {
        fill: #fff;
      }

      .cls-2 {
        fill: #10395b;
      }

      .cls-3 {
        fill: #e74915;
      }
    </style>
  </defs>
  <g id="Capa_1-2" data-name="Capa 1">
    <g>
      <g>
        <path class="cls-2" d="m101.23,29.21c-.38-.64-.8-1.25-1.28-1.83-2.17-2.62-5.15-4.36-8.92-5.21-.47-.1-1.15-.25-2.02-.45-5.47-1.17-8.2-2.53-8.2-4.08,0-.82.37-1.47,1.12-1.93.75-.46,1.81-.69,3.18-.69,1.8,0,3.65.37,5.56,1.11,1.91.74,3.81,1.8,5.71,3.2l5.99-14.35c-3.1-1.67-6.17-2.92-9.22-3.75C90.12.41,87.02,0,83.87,0c-6.84,0-12.38,1.85-16.6,5.54-4.22,3.7-6.33,8.49-6.33,14.39,0,3.8,1.09,6.97,3.26,9.52,2.17,2.55,5.31,4.32,9.4,5.32.7.15,1.67.36,2.92.64,3.87.8,5.81,1.96,5.81,3.48,0,.87-.39,1.57-1.16,2.08-.77.51-1.84.77-3.18.77-1.92,0-3.99-.46-6.2-1.37-2.21-.91-4.73-2.35-7.55-4.33l-6.29,15.36c3.6,2.05,7.19,3.58,10.79,4.61,3.6,1.02,7.19,1.54,10.79,1.54,3.9,0,7.39-.6,10.48-1.78l11.22-26.55Z"/>
        <path class="cls-2" d="m55.7,26.08c-.03-.55-.06-1.39-.11-2.51h-30.31s0,12.89,0,12.89h8.58c-.22,1.42-.93,2.54-2.12,3.33-1.19.8-2.73,1.2-4.63,1.2-3.2,0-5.67-1.07-7.42-3.2-1.75-2.14-2.62-5.14-2.62-9.01,0-3.75.87-6.73,2.6-8.95,1.74-2.22,4.06-3.33,6.99-3.33,1.67,0,3.16.37,4.46,1.12,1.3.75,2.41,1.89,3.33,3.41l17.57-6.52c-2.77-4.75-6.34-8.35-10.71-10.81C36.94,1.23,31.95,0,26.33,0c-3.2,0-6.23.42-9.09,1.25L0,42.03c1.34,2.69,3.11,5.13,5.31,7.31,2.75,2.7,5.9,4.74,9.46,6.13s7.41,2.08,11.56,2.08c5.62,0,10.64-1.24,15.06-3.73,4.42-2.48,8.03-6.08,10.83-10.77,1.15-2,2.02-4.3,2.62-6.89.6-2.6.9-5.47.9-8.62,0-.42-.01-.91-.04-1.46Z"/>
      </g>
      <polygon class="cls-3" points="113.75 11.97 99.21 46.25 235.8 46.25 235.8 11.97 113.75 11.97"/>
      <g>
        <g>
          <path class="cls-1" d="m137.02,41.32h5.28s1,2.45,1,2.45h4.07s-5.83-13.8-5.83-13.8h-3.66s-5.83,13.8-5.83,13.8h3.99s.98-2.45.98-2.45Zm2.66-6.85l1.53,3.89h-3.07s1.55-3.89,1.55-3.89Z"/>
          <polygon class="cls-1" points="152.47 36.25 158.32 43.77 161.65 43.77 161.65 30.07 157.89 30.07 157.89 37.31 152.25 30.07 148.71 30.07 148.71 43.77 152.47 43.77 152.47 36.25"/>
          <path class="cls-1" d="m126.2,40.85c-1.58,0-3.09-.57-4.44-1.64l-2.11,2.52c1.68,1.51,3.99,2.27,6.42,2.27,3.33,0,5.54-1.66,5.54-4.46v-.04c0-2.56-1.96-3.58-5.11-4.27-1.9-.43-2.37-.7-2.37-1.33v-.04c0-.49.45-.88,1.37-.88,1.21,0,2.58.47,3.84,1.35l1.9-2.68c-1.49-1.19-3.31-1.82-5.64-1.82-3.29,0-5.3,1.84-5.3,4.38v.04c0,2.82,2.25,3.64,5.17,4.31,1.86.43,2.31.74,2.31,1.31v.04c0,.59-.55.94-1.57.94Z"/>
          <polygon class="cls-1" points="167.42 43.77 171.22 43.77 171.22 33.4 175.33 33.4 175.33 30.07 163.31 30.07 163.31 33.4 167.42 33.4 167.42 43.77"/>
          <path class="cls-1" d="m205.06,44.04c2.49,0,4.5-.92,5.95-2.11v-6.16h-6.3v2.78h2.7s0,1.66,0,1.66c-.57.37-1.27.57-2.19.57-2.17,0-3.72-1.58-3.72-3.8v-.04c0-2.09,1.53-3.76,3.5-3.76,1.35,0,2.33.47,3.31,1.29l2.23-2.68c-1.45-1.25-3.15-2-5.56-2-4.25,0-7.38,3.13-7.38,7.12v.04c0,4.15,3.19,7.08,7.46,7.08Z"/>
          <path class="cls-1" d="m220.01,44.04c4.23,0,7.4-3.19,7.4-7.12v-.04c0-3.93-3.13-7.08-7.36-7.08s-7.4,3.19-7.4,7.12v.04c0,3.93,3.13,7.08,7.36,7.08Zm-3.46-7.16c0-1.98,1.39-3.66,3.46-3.66,2.09,0,3.52,1.72,3.52,3.7v.04c0,1.98-1.39,3.66-3.48,3.66s-3.5-1.72-3.5-3.7v-.04Z"/>
          <rect class="cls-1" x="177.07" y="30.07" width="3.82" height="13.7"/>
          <path class="cls-1" d="m187.27,41.32h5.28s1,2.45,1,2.45h4.07s-5.83-13.8-5.83-13.8h-3.66s-5.83,13.8-5.83,13.8h3.99s.98-2.45.98-2.45Zm2.66-6.85l1.53,3.89h-3.07s1.55-3.89,1.55-3.89Z"/>
        </g>
        <g>
          <polygon class="cls-1" points="227.41 23.89 221.85 23.89 221.85 22.25 226.82 22.25 226.82 19.99 221.85 19.99 221.85 18.43 227.34 18.43 227.34 15.99 219.02 15.99 219.02 26.33 227.41 26.33 227.41 23.89"/>
          <path class="cls-1" d="m217.54,21.13v-.03c0-2.99-2.14-5.11-5.84-5.11h-3.99v10.35h3.93c3.72,0,5.9-2.22,5.9-5.2Zm-6.96-2.6h1.17c1.71,0,2.85.96,2.85,2.62v.03c0,1.67-1.14,2.62-2.85,2.62h-1.17s0-5.26,0-5.26Z"/>
          <polygon class="cls-1" points="182.56 20.66 186.98 26.33 189.49 26.33 189.49 15.99 186.65 15.99 186.65 21.46 182.4 15.99 179.72 15.99 179.72 26.33 182.56 26.33 182.56 20.66"/>
          <path class="cls-1" d="m196.53,26.54c3.19,0,5.59-2.41,5.59-5.38v-.03c0-2.97-2.36-5.35-5.56-5.35s-5.59,2.41-5.59,5.38v.03c0,2.97,2.36,5.35,5.56,5.35Zm-2.62-5.41c0-1.49,1.05-2.76,2.62-2.76s2.66,1.3,2.66,2.79v.03c0,1.49-1.05,2.76-2.63,2.76s-2.65-1.3-2.65-2.79v-.03Z"/>
          <path class="cls-1" d="m125.45,26.54c1.88,0,3.4-.69,4.49-1.6v-4.66h-4.76v2.1h2.04s0,1.26,0,1.26c-.43.28-.96.43-1.66.43-1.64,0-2.81-1.2-2.81-2.87v-.03c0-1.58,1.15-2.84,2.65-2.84,1.02,0,1.76.35,2.5.98l1.69-2.02c-1.09-.95-2.38-1.51-4.2-1.51-3.21,0-5.57,2.36-5.57,5.38v.03c0,3.13,2.41,5.35,5.63,5.35Z"/>
          <rect class="cls-1" x="154.46" y="15.99" width="2.88" height="10.35"/>
          <polygon class="cls-1" points="167.63 23.89 162.07 23.89 162.07 22.25 167.03 22.25 167.03 19.99 162.07 19.99 162.07 18.43 167.55 18.43 167.55 15.99 159.23 15.99 159.23 26.33 167.63 26.33 167.63 23.89"/>
          <path class="cls-1" d="m136.74,26.54c3.19,0,5.59-2.41,5.59-5.38v-.03c0-2.97-2.36-5.35-5.56-5.35s-5.59,2.41-5.59,5.38v.03c0,2.97,2.36,5.35,5.56,5.35Zm-2.62-5.41c0-1.49,1.05-2.76,2.62-2.76,1.58,0,2.66,1.3,2.66,2.79v.03c0,1.49-1.05,2.76-2.63,2.76s-2.65-1.3-2.65-2.79v-.03Z"/>
          <path class="cls-1" d="m171.96,23.2h1.23s.03,0,.03,0l2.08,3.13h3.31s-2.47-3.61-2.47-3.61c1.29-.55,2.13-1.6,2.13-3.18v-.03c0-1.02-.31-1.82-.92-2.41-.69-.71-1.79-1.12-3.37-1.12h-4.89v10.35h2.87v-3.13Zm0-4.73h1.88c.96,0,1.55.41,1.55,1.23v.03c0,.75-.56,1.23-1.54,1.23h-1.89s0-2.48,0-2.48Z"/>
          <path class="cls-1" d="m153.08,23.48v-.03c0-1.4-.8-2.11-2.05-2.53.92-.4,1.6-1.11,1.6-2.31v-.03c0-.71-.25-1.26-.67-1.67-.61-.61-1.52-.93-2.82-.93h-5.31v10.35h5.34c2.47,0,3.92-1.08,3.92-2.85Zm-6.46-5.19h1.86c.86,0,1.3.33,1.3.89v.03c0,.61-.49.9-1.36.9h-1.8s0-1.82,0-1.82Zm0,5.73v-1.91s2.19,0,2.19,0c.96,0,1.4.37,1.4.93v.03c0,.61-.5.95-1.37.95h-2.22Z"/>
        </g>
      </g>
    </g>
  </g>
</svg>