<?xml version="1.0" encoding="UTF-8"?>
<svg id="Capa_2" data-name="Capa 2" xmlns="http://www.w3.org/2000/svg" viewBox="0 0 879.81 183.3">
  <defs>
    <style>
      .cls-1, .cls-2, .cls-3, .cls-4, .cls-5, .cls-6, .cls-7, .cls-8, .cls-9, .cls-10, .cls-11, .cls-12, .cls-13, .cls-14, .cls-15 {
        font-family: HelveticaNeue-Roman, 'Helvetica Neue';
      }

      .cls-1, .cls-16 {
        letter-spacing: -.05em;
      }

      .cls-17, .cls-18, .cls-19, .cls-20, .cls-21, .cls-22, .cls-23, .cls-24, .cls-25, .cls-16, .cls-26, .cls-27, .cls-28 {
        font-family: HelveticaNeue-Medium, 'Helvetica Neue';
        font-weight: 500;
      }

      .cls-17, .cls-5 {
        letter-spacing: -.05em;
      }

      .cls-2, .cls-20 {
        letter-spacing: .06em;
      }

      .cls-3, .cls-19 {
        letter-spacing: -.01em;
      }

      .cls-29 {
        font-family: HelveticaNeue-Heavy, 'Helvetica Neue';
        font-weight: 800;
      }

      .cls-29, .cls-8, .cls-28 {
        letter-spacing: -.01em;
      }

      .cls-18, .cls-14 {
        letter-spacing: -.05em;
      }

      .cls-4, .cls-21 {
        letter-spacing: -.05em;
      }

      .cls-30 {
        fill: #844315;
        font-size: 22px;
      }

      .cls-6 {
        letter-spacing: .06em;
      }

      .cls-7 {
        letter-spacing: -.05em;
      }

      .cls-9 {
        letter-spacing: -.02em;
      }

      .cls-31 {
        fill: #fff;
        font-family: HelveticaNeue-Thin, 'Helvetica Neue';
        font-size: 62px;
        font-weight: 200;
      }

      .cls-10, .cls-22 {
        letter-spacing: 0em;
      }

      .cls-11 {
        letter-spacing: -.02em;
      }

      .cls-23, .cls-15 {
        letter-spacing: .06em;
      }

      .cls-12, .cls-25 {
        letter-spacing: -.05em;
      }

      .cls-24 {
        letter-spacing: 0em;
      }

      .cls-26 {
        letter-spacing: -.02em;
      }
    </style>
  </defs>
  <g id="Capa_1-2" data-name="Capa 1">
    <text transform="translate(0 52.7)"><tspan class="cls-31"><tspan x="0" y="0">¿Qué entendemos por Ecobarrio?</tspan></tspan><tspan class="cls-30"><tspan class="cls-8" x="0" y="60">Un</tspan><tspan class="cls-4" x="27.68" y="60"> </tspan><tspan class="cls-29" x="32.65" y="60">Ecobarrio</tspan><tspan class="cls-4" x="137.83" y="60"> </tspan><tspan class="cls-10" x="142.8" y="60">es</tspan><tspan class="cls-4" x="165.17" y="60"> </tspan><tspan class="cls-10" x="170.14" y="60">una</tspan><tspan class="cls-4" x="205.76" y="60"> </tspan><tspan class="cls-28" x="210.73" y="60">comunidad</tspan><tspan class="cls-21" x="322.84" y="60"> </tspan><tspan class="cls-22" x="327.81" y="60">organizada</tspan><tspan class="cls-1" x="438.51" y="60"> </tspan><tspan class="cls-3" x="443.48" y="60">que</tspan><tspan class="cls-5" x="479.91" y="60"> </tspan><tspan class="cls-10" x="484.88" y="60">trabaja</tspan><tspan class="cls-1" x="550.96" y="60"> </tspan><tspan class="cls-10" x="555.93" y="60">por</tspan><tspan class="cls-1" x="588.27" y="60"> </tspan><tspan class="cls-10" x="593.24" y="60">un</tspan><tspan class="cls-1" x="617.27" y="60"> </tspan><tspan class="cls-22" x="622.24" y="60">ento</tspan><tspan class="cls-24" x="666.59" y="60">r</tspan><tspan class="cls-19" x="674.51" y="60">no</tspan><tspan class="cls-16" x="699.74" y="60"> </tspan><tspan class="cls-19" x="704.71" y="60">más</tspan><tspan class="cls-17" x="746.84" y="60"> </tspan><tspan class="cls-22" x="751.81" y="60">sustentable</tspan><tspan class="cls-10" x="867.58" y="60">,</tspan><tspan class="cls-13" x="873.47" y="60"> </tspan></tspan><tspan class="cls-30"><tspan class="cls-13" x="0" y="80">mejorando</tspan><tspan class="cls-15" x="105.14" y="80"> </tspan><tspan class="cls-13" x="112.63" y="80">la</tspan><tspan class="cls-2" x="129.33" y="80"> </tspan><tspan class="cls-13" x="136.82" y="80">calidad</tspan><tspan class="cls-15" x="208.12" y="80"> </tspan><tspan class="cls-13" x="215.61" y="80">de</tspan><tspan class="cls-15" x="240.47" y="80"> </tspan><tspan class="cls-13" x="247.96" y="80">vida</tspan><tspan class="cls-15" x="288.7" y="80"> </tspan><tspan class="cls-13" x="296.19" y="80">y</tspan><tspan class="cls-2" x="307.19" y="80"> </tspan><tspan class="cls-27" x="314.69" y="80">p</tspan><tspan class="cls-26" x="328.13" y="80">r</tspan><tspan class="cls-27" x="335.48" y="80">otegiendo</tspan><tspan class="cls-20" x="437.77" y="80"> </tspan><tspan class="cls-27" x="445.27" y="80">la</tspan><tspan class="cls-23" x="462.8" y="80"> </tspan><tspan class="cls-27" x="470.29" y="80">naturaleza</tspan><tspan class="cls-15" x="575.85" y="80"> </tspan><tspan class="cls-13" x="583.34" y="80">local.</tspan><tspan class="cls-15" x="635.48" y="80"> </tspan><tspan class="cls-13" x="642.97" y="80">A</tspan><tspan class="cls-15" x="657.23" y="80"> </tspan><tspan class="cls-13" x="664.72" y="80">través</tspan><tspan class="cls-6" x="724.6" y="80"> </tspan><tspan class="cls-13" x="732.09" y="80">de</tspan><tspan class="cls-15" x="756.95" y="80"> </tspan><tspan class="cls-27" x="764.44" y="80">soluciones </tspan></tspan><tspan class="cls-30"><tspan class="cls-27" x="0" y="100">ecológicas</tspan><tspan class="cls-18" x="110.09" y="100"> </tspan><tspan class="cls-27" x="115.03" y="100">y</tspan><tspan class="cls-25" x="126.45" y="100"> </tspan><tspan class="cls-27" x="131.39" y="100">sociales</tspan><tspan class="cls-13" x="214.57" y="100">,</tspan><tspan class="cls-14" x="220.69" y="100"> </tspan><tspan class="cls-13" x="225.63" y="100">impulsan</tspan><tspan class="cls-12" x="314.49" y="100"> </tspan><tspan class="cls-27" x="319.43" y="100">cambios</tspan><tspan class="cls-18" x="406.24" y="100"> </tspan><tspan class="cls-27" x="411.19" y="100">positivos</tspan><tspan class="cls-12" x="502.91" y="100"> </tspan><tspan class="cls-13" x="507.85" y="100">y</tspan><tspan class="cls-7" x="518.85" y="100"> </tspan><tspan class="cls-13" x="523.79" y="100">durade</tspan><tspan class="cls-9" x="593.07" y="100">r</tspan><tspan class="cls-13" x="600" y="100">os</tspan><tspan class="cls-12" x="623.63" y="100"> </tspan><tspan class="cls-13" x="628.57" y="100">en</tspan><tspan class="cls-12" x="652.62" y="100"> </tspan><tspan class="cls-13" x="657.56" y="100">su</tspan><tspan class="cls-12" x="680.79" y="100"> </tspan><tspan class="cls-13" x="685.74" y="100">barrio,</tspan><tspan class="cls-7" x="748.88" y="100"> </tspan><tspan class="cls-13" x="753.82" y="100">siemp</tspan><tspan class="cls-11" x="813.33" y="100">r</tspan><tspan class="cls-13" x="820.26" y="100">e</tspan><tspan class="cls-12" x="832.07" y="100"> </tspan><tspan class="cls-13" x="837.02" y="100">con </tspan></tspan><tspan class="cls-30"><tspan class="cls-13" x="0" y="120">un </tspan><tspan class="cls-27" x="30.58" y="120">comp</tspan><tspan class="cls-26" x="88.44" y="120">r</tspan><tspan class="cls-27" x="95.79" y="120">omiso ambiental</tspan><tspan class="cls-13" x="263.69" y="120">.</tspan></tspan></text>
  </g>
</svg>