<?xml version="1.0" encoding="UTF-8"?>
<svg id="Capa_2" data-name="Capa 2" xmlns="http://www.w3.org/2000/svg" viewBox="0 0 112.65 25.13">
  <defs>
    <style>
      .cls-1 {
        fill: #fff;
      }
    </style>
  </defs>
  <g id="Capa_1-2" data-name="Capa 1">
    <g>
      <path class="cls-1" d="m12.56,0h0C5.62,0,0,5.62,0,12.56s5.62,12.56,12.56,12.56h0c6.94,0,12.56-5.62,12.56-12.56S19.5,0,12.56,0Zm3.73,6.75c0,.19-.16.35-.35.35h-1.75c-.77,0-1.4.63-1.4,1.4v2.45h2.93c.34,0,.6.3.56.63l-.21,1.68c-.04.28-.27.49-.56.49h-2.72v7.03c-.29.03-.58.04-.87.04-.66,0-1.3-.07-1.92-.19v-6.88h-2.09c-.19,0-.35-.16-.35-.35v-2.1c0-.19.16-.35.35-.35h2.09v-3.15c0-1.94,1.56-3.5,3.49-3.5h2.44c.19,0,.35.16.35.35v2.1Z"/>
      <path class="cls-1" d="m100.09,0h0c-6.94,0-12.56,5.62-12.56,12.56s5.62,12.56,12.56,12.56h0c6.94,0,12.56-5.62,12.56-12.56S107.03,0,100.09,0Zm6.59,15.97c0,1.76-1.42,3.18-3.18,3.18h-6.82c-1.76,0-3.18-1.42-3.18-3.18v-6.82c0-1.76,1.42-3.18,3.18-3.18h6.82c1.76,0,3.18,1.42,3.18,3.18v6.82Z"/>
      <path class="cls-1" d="m103.27,7.11h-6.36c-1.25,0-2.27,1.02-2.27,2.27v6.36c0,1.25,1.02,2.27,2.27,2.27h6.36c1.25,0,2.27-1.02,2.27-2.27v-6.36c0-1.25-1.02-2.27-2.27-2.27Zm-3.17,8.86c-1.88,0-3.41-1.53-3.41-3.41s1.53-3.41,3.41-3.41,3.41,1.53,3.41,3.41-1.53,3.41-3.41,3.41Zm3.64-6.36c-.38,0-.68-.31-.68-.68s.31-.68.68-.68.68.31.68.68-.31.68-.68.68Z"/>
      <path class="cls-1" d="m100.1,10.29c-1.25,0-2.27,1.02-2.27,2.27s1.02,2.27,2.27,2.27,2.27-1.02,2.27-2.27-1.02-2.27-2.27-2.27Z"/>
      <path class="cls-1" d="m57.67,0h0c-6.94,0-12.56,5.62-12.56,12.56s5.62,12.56,12.56,12.56h0c6.94,0,12.56-5.62,12.56-12.56S64.61,0,57.67,0Zm2.08,19.15l-3.25-4.55-4.25,4.55h-1.93l5.34-5.72-5.34-7.46h5.28l3.05,4.27,3.99-4.27h1.93l-5.08,5.44,5.54,7.74h-5.28Z"/>
      <polygon class="cls-1" points="53.03 7.37 60.47 17.76 62.31 17.76 54.87 7.37 53.03 7.37"/>
    </g>
  </g>
</svg>