<?xml version="1.0" encoding="UTF-8"?>
<svg id="Capa_2" data-name="Capa 2" xmlns="http://www.w3.org/2000/svg" viewBox="0 0 1736.17 257.07">
  <defs>
    <style>
      .cls-1 {
        fill: #844315;
      }

      .cls-2 {
        fill: #fff;
      }

      .cls-3 {
        fill: #92d050;
      }

      .cls-4 {
        fill: #027954;
      }

      .cls-5 {
        fill: #e84810;
      }

      .cls-6 {
        fill: #7348f5;
      }

      .cls-7 {
        fill: #6a4593;
      }

      .cls-8 {
        fill: #3b98d4;
      }

      .cls-9 {
        fill: #4cad33;
      }

      .cls-10 {
        fill: #f8ab2c;
      }

      .cls-11 {
        fill: #1c1a1c;
      }

      .cls-12 {
        fill: #ffac24;
      }

      .cls-13 {
        fill: #93c352;
      }

      .cls-14 {
        fill: #f8eede;
      }
    </style>
  </defs>
  <g id="Capa_1-2" data-name="Capa 1">
    <g>
      <g>
        <rect class="cls-1" x="75.67" y="35.1" width="70.63" height="70.63" rx="35.32" ry="35.32"/>
        <rect class="cls-14" x="95.09" y="72.16" width="12.37" height="12.37" rx="6.19" ry="6.19"/>
        <rect class="cls-14" x="114.51" y="72.16" width="12.37" height="12.37" rx="6.19" ry="6.19"/>
        <rect class="cls-14" x="104.3" y="56.29" width="12.37" height="12.37" rx="6.19" ry="6.19"/>
        <path class="cls-9" d="m151.34,0h0c19.5,0,35.32,15.81,35.32,35.32h0s0,0,0,0C167.15,35.32,151.34,19.5,151.34,0h0Z"/>
        <path class="cls-13" d="m221.97,0h0c0,19.5-15.81,35.32-35.32,35.32h0C186.66,15.81,202.47,0,221.97,0Z"/>
        <rect class="cls-8" x="75.67" y="110.77" width="70.63" height="70.63"/>
        <path class="cls-2" d="m124.12,152.4c0,10.97-6.11,15.78-13.64,15.78s-13.64-4.82-13.64-15.78,13.64-26.37,13.64-26.37c0,0,13.64,15.4,13.64,26.37Z"/>
        <path class="cls-9" d="m151.34,181.4v-70.63h0c39.01,0,70.63,31.62,70.63,70.63h0s-70.63,0-70.63,0Z"/>
        <path class="cls-13" d="m210.2,181.4h0s-58.86,0-58.86,0v-58.86h0c32.51,0,58.86,26.35,58.86,58.86Z"/>
        <path class="cls-4" d="m180.77,181.4h0s-29.43,0-29.43,0v-29.43h0c16.25,0,29.43,13.18,29.43,29.43Z"/>
        <rect class="cls-5" x="151.34" y="186.44" width="70.63" height="70.63"/>
        <path class="cls-2" d="m151.34,186.44h0c19.5,0,35.32,15.81,35.32,35.32h0s0,0,0,0c-19.5,0-35.32-15.81-35.32-35.32h0Z"/>
        <path class="cls-12" d="m221.97,186.44h0c0,19.5-15.81,35.32-35.32,35.32h0c0-19.5,15.81-35.32,35.32-35.32Z"/>
        <path class="cls-2" d="m186.66,221.75h0c0,19.5-15.81,35.32-35.32,35.32h0c0-19.5,15.81-35.32,35.32-35.32Z"/>
        <path class="cls-12" d="m186.66,221.75h0c19.5,0,35.32,15.81,35.32,35.32h0s0,0,0,0c-19.5,0-35.32-15.81-35.32-35.32h0Z"/>
        <rect class="cls-12" x="75.67" y="186.44" width="70.63" height="70.63"/>
        <rect class="cls-2" x="93.9" y="204.09" width="12.37" height="12.37" rx="6.19" ry="6.19"/>
        <rect class="cls-2" x="115.7" y="204.09" width="12.37" height="12.37" rx="6.19" ry="6.19"/>
        <path class="cls-6" d="m0,186.44h70.63v70.63h0C31.62,257.07,0,225.45,0,186.44h0Z"/>
        <rect class="cls-2" x="49.73" y="197.91" width="12.37" height="12.37" rx="6.19" ry="6.19"/>
        <g>
          <rect class="cls-3" y="35.1" width="70.63" height="70.63"/>
          <g>
            <rect class="cls-9" y="45.36" width="70.63" height="3.5"/>
            <rect class="cls-9" y="57.01" width="70.63" height="3.5"/>
            <rect class="cls-9" y="68.66" width="70.63" height="3.5"/>
            <rect class="cls-9" y="80.31" width="70.63" height="3.5"/>
            <rect class="cls-9" y="91.97" width="70.63" height="3.5"/>
          </g>
        </g>
        <rect class="cls-5" x="0" y="110.77" width="70.63" height="70.63" rx="35.32" ry="35.32"/>
        <circle class="cls-10" cx="35.32" cy="146.08" r="21.1"/>
        <path class="cls-5" d="m152.14,35.1c-.44,0-.8.36-.8.8v69.83h0c10.39,0,20.26-2.25,29.14-6.28.41-.18.58-.67.39-1.07l-2.45-5.24c-.39-.83.7-1.55,1.31-.88l4.36,4.74c.25.27.65.34.98.16,6.27-3.41,11.96-7.75,16.9-12.83.31-.32.3-.83-.02-1.14l-4.48-4.32c-.66-.64.09-1.7.91-1.29l6.14,3.04c.33.16.74.08.97-.2,4.56-5.44,8.31-11.57,11.07-18.22.17-.42-.03-.89-.45-1.06l-5.4-2.09c-.85-.33-.57-1.6.34-1.55l6.51.41c.36.02.7-.2.81-.55,2.33-7,3.59-14.49,3.59-22.28h-69.83Z"/>
        <rect class="cls-7" x="303.05" y="110.77" width="70.63" height="70.63" rx="35.32" ry="35.32"/>
        <rect class="cls-14" x="322.48" y="147.83" width="12.37" height="12.37" rx="6.19" ry="6.19"/>
        <rect class="cls-14" x="341.89" y="147.83" width="12.37" height="12.37" rx="6.19" ry="6.19"/>
        <rect class="cls-14" x="331.68" y="131.97" width="12.37" height="12.37" rx="6.19" ry="6.19"/>
        <rect class="cls-8" x="303.05" y="186.44" width="70.63" height="70.63"/>
        <path class="cls-2" d="m351.51,228.07c0,10.97-6.11,15.78-13.64,15.78s-13.64-4.82-13.64-15.78,13.64-26.37,13.64-26.37c0,0,13.64,15.4,13.64,26.37Z"/>
        <path class="cls-10" d="m378.73,257.07v-70.63h0c39.01,0,70.63,31.62,70.63,70.63h0s-70.63,0-70.63,0Z"/>
        <path class="cls-5" d="m437.59,257.07h0s-58.86,0-58.86,0v-58.86h0c32.51,0,58.86,26.35,58.86,58.86Z"/>
        <path class="cls-7" d="m408.16,257.07h0s-29.43,0-29.43,0v-29.43h0c16.25,0,29.43,13.18,29.43,29.43Z"/>
        <rect class="cls-9" x="227.38" y="35.1" width="70.63" height="70.63"/>
        <path class="cls-2" d="m298.02,105.73h0c-19.5,0-35.32-15.81-35.32-35.32h0s0,0,0,0c19.5,0,35.32,15.81,35.32,35.32h0Z"/>
        <path class="cls-13" d="m227.38,105.73h0c0-19.5,15.81-35.32,35.32-35.32h0c0,19.5-15.81,35.32-35.32,35.32Z"/>
        <path class="cls-2" d="m262.7,70.41h0c0-19.5,15.81-35.32,35.32-35.32h0c0,19.5-15.81,35.32-35.32,35.32Z"/>
        <path class="cls-13" d="m262.7,70.41h0c-19.5,0-35.32-15.81-35.32-35.32h0s0,0,0,0c19.5,0,35.32,15.81,35.32,35.32h0Z"/>
        <rect class="cls-12" x="303.05" y="35.1" width="70.63" height="70.63"/>
        <rect class="cls-2" x="343.08" y="75.7" width="12.37" height="12.37" rx="6.19" ry="6.19"/>
        <rect class="cls-2" x="321.29" y="75.7" width="12.37" height="12.37" rx="6.19" ry="6.19"/>
        <path class="cls-9" d="m449.36,105.73h-70.63V35.1h0c39.01,0,70.63,31.62,70.63,70.63h0Z"/>
        <g>
          <rect class="cls-3" x="227.38" y="110.77" width="70.63" height="70.63"/>
          <g>
            <rect class="cls-9" x="227.38" y="121.03" width="70.63" height="3.5"/>
            <rect class="cls-9" x="227.38" y="132.68" width="70.63" height="3.5"/>
            <rect class="cls-9" x="227.38" y="144.33" width="70.63" height="3.5"/>
            <rect class="cls-9" x="227.38" y="155.99" width="70.63" height="3.5"/>
            <rect class="cls-9" x="227.38" y="167.64" width="70.63" height="3.5"/>
          </g>
        </g>
        <rect class="cls-5" x="227.38" y="186.44" width="70.63" height="70.63" rx="35.32" ry="35.32"/>
        <circle class="cls-10" cx="262.7" cy="221.75" r="21.1"/>
        <path class="cls-10" d="m379.53,110.77c-.44,0-.8.36-.8.8v69.83h0c10.39,0,20.26-2.25,29.14-6.28.41-.18.58-.67.39-1.07l-2.45-5.24c-.39-.83.7-1.55,1.31-.88l4.36,4.74c.25.27.65.34.98.16,6.27-3.41,11.96-7.75,16.9-12.83.31-.32.3-.83-.02-1.14l-4.48-4.32c-.66-.64.09-1.7.91-1.29l6.14,3.04c.33.16.74.08.97-.2,4.56-5.44,8.31-11.57,11.07-18.22.17-.42-.03-.89-.45-1.06l-5.4-2.09c-.85-.33-.57-1.6.34-1.55l6.51.41c.36.02.7-.2.81-.55,2.33-7,3.59-14.49,3.59-22.28h-69.83Z"/>
        <path class="cls-13" d="m425.81,62.66h0c0,19.5-15.81,35.32-35.32,35.32h0c0-19.5,15.81-35.32,35.32-35.32Z"/>
        <rect class="cls-13" x="454.02" y="35.1" width="70.63" height="70.63" rx="35.32" ry="35.32"/>
        <rect class="cls-11" x="473.45" y="72.16" width="12.37" height="12.37" rx="6.19" ry="6.19"/>
        <rect class="cls-11" x="492.86" y="72.16" width="12.37" height="12.37" rx="6.19" ry="6.19"/>
        <rect class="cls-11" x="482.65" y="56.29" width="12.37" height="12.37" rx="6.19" ry="6.19"/>
        <rect class="cls-8" x="454.02" y="110.77" width="70.63" height="70.63"/>
        <path class="cls-2" d="m502.48,152.4c0,10.97-6.11,15.78-13.64,15.78s-13.64-4.82-13.64-15.78,13.64-26.37,13.64-26.37c0,0,13.64,15.4,13.64,26.37Z"/>
        <path class="cls-1" d="m529.69,181.4v-70.63h0c39.01,0,70.63,31.62,70.63,70.63h0s-70.63,0-70.63,0Z"/>
        <path class="cls-9" d="m588.55,181.4h0s-58.86,0-58.86,0v-58.86h0c32.51,0,58.86,26.35,58.86,58.86Z"/>
        <path class="cls-13" d="m559.12,181.4h0s-29.43,0-29.43,0v-29.43h0c16.25,0,29.43,13.18,29.43,29.43Z"/>
        <rect class="cls-5" x="529.69" y="186.44" width="70.63" height="70.63"/>
        <path class="cls-2" d="m529.69,186.44h0c19.5,0,35.32,15.81,35.32,35.32h0s0,0,0,0c-19.5,0-35.32-15.81-35.32-35.32h0Z"/>
        <path class="cls-12" d="m600.33,186.44h0c0,19.5-15.81,35.32-35.32,35.32h0c0-19.5,15.81-35.32,35.32-35.32Z"/>
        <path class="cls-2" d="m565.01,221.75h0c0,19.5-15.81,35.32-35.32,35.32h0c0-19.5,15.81-35.32,35.32-35.32Z"/>
        <path class="cls-12" d="m565.01,221.75h0c19.5,0,35.32,15.81,35.32,35.32h0s0,0,0,0c-19.5,0-35.32-15.81-35.32-35.32h0Z"/>
        <rect class="cls-1" x="454.02" y="186.44" width="70.63" height="70.63"/>
        <rect class="cls-2" x="472.26" y="204.09" width="12.37" height="12.37" rx="6.19" ry="6.19"/>
        <rect class="cls-2" x="494.05" y="204.09" width="12.37" height="12.37" rx="6.19" ry="6.19"/>
        <path class="cls-7" d="m530.5,35.1c-.44,0-.8.36-.8.8v69.83h0c10.39,0,20.26-2.25,29.14-6.28.41-.18.58-.67.39-1.07l-2.45-5.24c-.39-.83.7-1.55,1.31-.88l4.36,4.74c.25.27.65.34.98.16,6.27-3.41,11.96-7.75,16.9-12.83.31-.32.3-.83-.02-1.14l-4.48-4.32c-.66-.64.09-1.7.91-1.29l6.14,3.04c.33.16.74.08.97-.2,4.56-5.44,8.31-11.57,11.07-18.22.17-.42-.03-.89-.45-1.06l-5.4-2.09c-.85-.33-.57-1.6.34-1.55l6.51.41c.36.02.7-.2.81-.55,2.33-7,3.59-14.49,3.59-22.28h-69.83Z"/>
        <rect class="cls-1" x="605.74" y="35.1" width="70.63" height="70.63"/>
        <path class="cls-9" d="m676.37,105.73h0c-19.5,0-35.32-15.81-35.32-35.32h0s0,0,0,0c19.5,0,35.32,15.81,35.32,35.32h0Z"/>
        <path class="cls-13" d="m605.74,105.73h0c0-19.5,15.81-35.32,35.32-35.32h0c0,19.5-15.81,35.32-35.32,35.32Z"/>
        <path class="cls-9" d="m641.05,70.41h0c0-19.5,15.81-35.32,35.32-35.32h0c0,19.5-15.81,35.32-35.32,35.32Z"/>
        <path class="cls-13" d="m641.05,70.41h0c-19.5,0-35.32-15.81-35.32-35.32h0s0,0,0,0c19.5,0,35.32,15.81,35.32,35.32h0Z"/>
        <g>
          <rect class="cls-3" x="605.74" y="110.77" width="70.63" height="70.63"/>
          <g>
            <rect class="cls-9" x="616" y="110.77" width="3.5" height="70.63"/>
            <rect class="cls-9" x="627.65" y="110.77" width="3.5" height="70.63"/>
            <rect class="cls-9" x="639.3" y="110.77" width="3.5" height="70.63"/>
            <rect class="cls-9" x="650.96" y="110.77" width="3.5" height="70.63"/>
            <rect class="cls-9" x="662.61" y="110.77" width="3.5" height="70.63"/>
          </g>
        </g>
        <rect class="cls-7" x="605.74" y="186.44" width="70.63" height="70.63" rx="35.32" ry="35.32"/>
        <circle class="cls-8" cx="641.05" cy="221.75" r="21.1"/>
        <rect class="cls-7" x="757.45" y="110.77" width="70.63" height="70.63"/>
        <path class="cls-13" d="m805.9,152.4c0,10.97-6.11,15.78-13.64,15.78s-13.64-4.82-13.64-15.78,13.64-26.37,13.64-26.37c0,0,13.64,15.4,13.64,26.37Z"/>
        <path class="cls-9" d="m757.45,186.44h70.63c0,39.01-31.62,70.63-70.63,70.63h0v-70.63Z"/>
        <path class="cls-5" d="m757.45,245.3h0v-58.86h58.86c0,32.51-26.35,58.86-58.86,58.86Z"/>
        <path class="cls-2" d="m757.45,215.87h0v-29.43s29.43,0,29.43,0h0c0,16.25-13.18,29.43-29.43,29.43Z"/>
        <rect class="cls-5" x="681.78" y="186.44" width="70.63" height="70.63"/>
        <path class="cls-2" d="m752.41,186.44h0c0,19.5-15.81,35.32-35.32,35.32h0c0-19.5,15.81-35.32,35.32-35.32h0Z"/>
        <path class="cls-12" d="m752.41,257.07h0s0,0,0,0c-19.5,0-35.32-15.81-35.32-35.32h0s0,0,0,0c19.5,0,35.32,15.81,35.32,35.32Z"/>
        <path class="cls-2" d="m717.1,221.75h0s0,0,0,0c-19.5,0-35.32-15.81-35.32-35.32h0s0,0,0,0c19.5,0,35.32,15.81,35.32,35.32Z"/>
        <path class="cls-12" d="m717.1,221.75h0c0,19.5-15.81,35.32-35.32,35.32h0c0-19.5,15.81-35.32,35.32-35.32h0Z"/>
        <rect class="cls-12" x="681.78" y="110.77" width="70.63" height="70.63"/>
        <path class="cls-6" d="m752.41,35.1v70.63h-70.63c0-39.01,31.62-70.63,70.63-70.63h0Z"/>
        <rect class="cls-2" x="728.57" y="84.83" width="12.37" height="12.37" rx="6.19" ry="6.19"/>
        <rect class="cls-10" x="757.45" y="35.1" width="70.63" height="70.63" rx="35.32" ry="35.32"/>
        <circle class="cls-1" cx="792.77" cy="70.41" r="21.1"/>
        <rect class="cls-11" x="782.01" y="210.28" width="12.37" height="12.37" rx="6.19" ry="6.19"/>
      </g>
      <g>
        <rect class="cls-1" x="908.08" y="35.1" width="70.63" height="70.63" rx="35.32" ry="35.32"/>
        <rect class="cls-14" x="927.51" y="72.16" width="12.37" height="12.37" rx="6.19" ry="6.19"/>
        <rect class="cls-14" x="946.92" y="72.16" width="12.37" height="12.37" rx="6.19" ry="6.19"/>
        <rect class="cls-14" x="936.71" y="56.29" width="12.37" height="12.37" rx="6.19" ry="6.19"/>
        <path class="cls-9" d="m983.75,0h0c19.5,0,35.32,15.81,35.32,35.32h0s0,0,0,0c-19.5,0-35.32-15.81-35.32-35.32h0Z"/>
        <path class="cls-13" d="m1054.39,0h0c0,19.5-15.81,35.32-35.32,35.32h0C1019.07,15.81,1034.88,0,1054.39,0Z"/>
        <rect class="cls-8" x="908.08" y="110.77" width="70.63" height="70.63"/>
        <path class="cls-2" d="m956.54,152.4c0,10.97-6.11,15.78-13.64,15.78s-13.64-4.82-13.64-15.78,13.64-26.37,13.64-26.37c0,0,13.64,15.4,13.64,26.37Z"/>
        <path class="cls-9" d="m983.75,181.4v-70.63h0c39.01,0,70.63,31.62,70.63,70.63h0s-70.63,0-70.63,0Z"/>
        <path class="cls-13" d="m1042.61,181.4h0s-58.86,0-58.86,0v-58.86h0c32.51,0,58.86,26.35,58.86,58.86Z"/>
        <path class="cls-4" d="m1013.18,181.4h0s-29.43,0-29.43,0v-29.43h0c16.25,0,29.43,13.18,29.43,29.43Z"/>
        <rect class="cls-5" x="983.75" y="186.44" width="70.63" height="70.63"/>
        <path class="cls-2" d="m983.75,186.44h0c19.5,0,35.32,15.81,35.32,35.32h0s0,0,0,0c-19.5,0-35.32-15.81-35.32-35.32h0Z"/>
        <path class="cls-12" d="m1054.39,186.44h0c0,19.5-15.81,35.32-35.32,35.32h0c0-19.5,15.81-35.32,35.32-35.32Z"/>
        <path class="cls-2" d="m1019.07,221.75h0c0,19.5-15.81,35.32-35.32,35.32h0c0-19.5,15.81-35.32,35.32-35.32Z"/>
        <path class="cls-12" d="m1019.07,221.75h0c19.5,0,35.32,15.81,35.32,35.32h0s0,0,0,0c-19.5,0-35.32-15.81-35.32-35.32h0Z"/>
        <rect class="cls-12" x="908.08" y="186.44" width="70.63" height="70.63"/>
        <rect class="cls-2" x="926.32" y="204.09" width="12.37" height="12.37" rx="6.19" ry="6.19"/>
        <rect class="cls-2" x="948.11" y="204.09" width="12.37" height="12.37" rx="6.19" ry="6.19"/>
        <path class="cls-6" d="m832.41,186.44h70.63v70.63h0c-39.01,0-70.63-31.62-70.63-70.63h0Z"/>
        <rect class="cls-2" x="882.14" y="197.91" width="12.37" height="12.37" rx="6.19" ry="6.19"/>
        <g>
          <rect class="cls-3" x="832.41" y="35.1" width="70.63" height="70.63"/>
          <g>
            <rect class="cls-9" x="832.41" y="45.36" width="70.63" height="3.5"/>
            <rect class="cls-9" x="832.41" y="57.01" width="70.63" height="3.5"/>
            <rect class="cls-9" x="832.41" y="68.66" width="70.63" height="3.5"/>
            <rect class="cls-9" x="832.41" y="80.31" width="70.63" height="3.5"/>
            <rect class="cls-9" x="832.41" y="91.97" width="70.63" height="3.5"/>
          </g>
        </g>
        <rect class="cls-5" x="832.41" y="110.77" width="70.63" height="70.63" rx="35.32" ry="35.32"/>
        <circle class="cls-10" cx="867.73" cy="146.08" r="21.1"/>
        <path class="cls-5" d="m984.56,35.1c-.44,0-.8.36-.8.8v69.83h0c10.39,0,20.26-2.25,29.14-6.28.41-.18.58-.67.39-1.07l-2.45-5.24c-.39-.83.7-1.55,1.31-.88l4.36,4.74c.25.27.65.34.98.16,6.27-3.41,11.96-7.75,16.9-12.83.31-.32.3-.83-.02-1.14l-4.48-4.32c-.66-.64.09-1.7.91-1.29l6.14,3.04c.33.16.74.08.97-.2,4.56-5.44,8.31-11.57,11.07-18.22.17-.42-.03-.89-.45-1.06l-5.4-2.09c-.85-.33-.57-1.6.34-1.55l6.51.41c.36.02.7-.2.81-.55,2.33-7,3.59-14.49,3.59-22.28h-69.83Z"/>
        <rect class="cls-7" x="1135.47" y="110.77" width="70.63" height="70.63" rx="35.32" ry="35.32"/>
        <rect class="cls-14" x="1154.89" y="147.83" width="12.37" height="12.37" rx="6.19" ry="6.19"/>
        <rect class="cls-14" x="1174.31" y="147.83" width="12.37" height="12.37" rx="6.19" ry="6.19"/>
        <rect class="cls-14" x="1164.09" y="131.97" width="12.37" height="12.37" rx="6.19" ry="6.19"/>
        <rect class="cls-8" x="1135.47" y="186.44" width="70.63" height="70.63"/>
        <path class="cls-2" d="m1183.92,228.07c0,10.97-6.11,15.78-13.64,15.78s-13.64-4.82-13.64-15.78,13.64-26.37,13.64-26.37c0,0,13.64,15.4,13.64,26.37Z"/>
        <path class="cls-10" d="m1211.14,257.07v-70.63h0c39.01,0,70.63,31.62,70.63,70.63h0s-70.63,0-70.63,0Z"/>
        <path class="cls-5" d="m1270,257.07h0s-58.86,0-58.86,0v-58.86h0c32.51,0,58.86,26.35,58.86,58.86Z"/>
        <path class="cls-7" d="m1240.57,257.07h0s-29.43,0-29.43,0v-29.43h0c16.25,0,29.43,13.18,29.43,29.43Z"/>
        <rect class="cls-9" x="1059.8" y="35.1" width="70.63" height="70.63"/>
        <path class="cls-2" d="m1130.43,105.73h0c-19.5,0-35.32-15.81-35.32-35.32h0s0,0,0,0c19.5,0,35.32,15.81,35.32,35.32h0Z"/>
        <path class="cls-13" d="m1059.8,105.73h0c0-19.5,15.81-35.32,35.32-35.32h0c0,19.5-15.81,35.32-35.32,35.32Z"/>
        <path class="cls-2" d="m1095.11,70.41h0c0-19.5,15.81-35.32,35.32-35.32h0c0,19.5-15.81,35.32-35.32,35.32Z"/>
        <path class="cls-13" d="m1095.11,70.41h0c-19.5,0-35.32-15.81-35.32-35.32h0s0,0,0,0c19.5,0,35.32,15.81,35.32,35.32h0Z"/>
        <rect class="cls-12" x="1135.47" y="35.1" width="70.63" height="70.63"/>
        <rect class="cls-2" x="1175.49" y="75.7" width="12.37" height="12.37" rx="6.19" ry="6.19"/>
        <rect class="cls-2" x="1153.7" y="75.7" width="12.37" height="12.37" rx="6.19" ry="6.19"/>
        <path class="cls-9" d="m1281.77,105.73h-70.63V35.1h0c39.01,0,70.63,31.62,70.63,70.63h0Z"/>
        <g>
          <rect class="cls-3" x="1059.8" y="110.77" width="70.63" height="70.63"/>
          <g>
            <rect class="cls-9" x="1059.8" y="121.03" width="70.63" height="3.5"/>
            <rect class="cls-9" x="1059.8" y="132.68" width="70.63" height="3.5"/>
            <rect class="cls-9" x="1059.8" y="144.33" width="70.63" height="3.5"/>
            <rect class="cls-9" x="1059.8" y="155.99" width="70.63" height="3.5"/>
            <rect class="cls-9" x="1059.8" y="167.64" width="70.63" height="3.5"/>
          </g>
        </g>
        <rect class="cls-5" x="1059.8" y="186.44" width="70.63" height="70.63" rx="35.32" ry="35.32"/>
        <circle class="cls-10" cx="1095.11" cy="221.75" r="21.1"/>
        <path class="cls-10" d="m1211.94,110.77c-.44,0-.8.36-.8.8v69.83h0c10.39,0,20.26-2.25,29.14-6.28.41-.18.58-.67.39-1.07l-2.45-5.24c-.39-.83.7-1.55,1.31-.88l4.36,4.74c.25.27.65.34.98.16,6.27-3.41,11.96-7.75,16.9-12.83.31-.32.3-.83-.02-1.14l-4.48-4.32c-.66-.64.09-1.7.91-1.29l6.14,3.04c.33.16.74.08.97-.2,4.56-5.44,8.31-11.57,11.07-18.22.17-.42-.03-.89-.45-1.06l-5.4-2.09c-.85-.33-.57-1.6.34-1.55l6.51.41c.36.02.7-.2.81-.55,2.33-7,3.59-14.49,3.59-22.28h-69.83Z"/>
        <path class="cls-13" d="m1258.23,62.66h0c0,19.5-15.81,35.32-35.32,35.32h0c0-19.5,15.81-35.32,35.32-35.32Z"/>
        <rect class="cls-13" x="1286.44" y="35.1" width="70.63" height="70.63" rx="35.32" ry="35.32"/>
        <rect class="cls-11" x="1305.86" y="72.16" width="12.37" height="12.37" rx="6.19" ry="6.19"/>
        <rect class="cls-11" x="1325.28" y="72.16" width="12.37" height="12.37" rx="6.19" ry="6.19"/>
        <rect class="cls-11" x="1315.06" y="56.29" width="12.37" height="12.37" rx="6.19" ry="6.19"/>
        <rect class="cls-8" x="1286.44" y="110.77" width="70.63" height="70.63"/>
        <path class="cls-2" d="m1334.89,152.4c0,10.97-6.11,15.78-13.64,15.78s-13.64-4.82-13.64-15.78,13.64-26.37,13.64-26.37c0,0,13.64,15.4,13.64,26.37Z"/>
        <path class="cls-1" d="m1362.11,181.4v-70.63h0c39.01,0,70.63,31.62,70.63,70.63h0s-70.63,0-70.63,0Z"/>
        <path class="cls-9" d="m1420.97,181.4h0s-58.86,0-58.86,0v-58.86h0c32.51,0,58.86,26.35,58.86,58.86Z"/>
        <path class="cls-13" d="m1391.54,181.4h0s-29.43,0-29.43,0v-29.43h0c16.25,0,29.43,13.18,29.43,29.43Z"/>
        <rect class="cls-5" x="1362.11" y="186.44" width="70.63" height="70.63"/>
        <path class="cls-2" d="m1362.11,186.44h0c19.5,0,35.32,15.81,35.32,35.32h0s0,0,0,0c-19.5,0-35.32-15.81-35.32-35.32h0Z"/>
        <path class="cls-12" d="m1432.74,186.44h0c0,19.5-15.81,35.32-35.32,35.32h0c0-19.5,15.81-35.32,35.32-35.32Z"/>
        <path class="cls-2" d="m1397.42,221.75h0c0,19.5-15.81,35.32-35.32,35.32h0c0-19.5,15.81-35.32,35.32-35.32Z"/>
        <path class="cls-12" d="m1397.42,221.75h0c19.5,0,35.32,15.81,35.32,35.32h0s0,0,0,0c-19.5,0-35.32-15.81-35.32-35.32h0Z"/>
        <rect class="cls-1" x="1286.44" y="186.44" width="70.63" height="70.63"/>
        <rect class="cls-2" x="1304.67" y="204.09" width="12.37" height="12.37" rx="6.19" ry="6.19"/>
        <rect class="cls-2" x="1326.46" y="204.09" width="12.37" height="12.37" rx="6.19" ry="6.19"/>
        <path class="cls-7" d="m1362.91,35.1c-.44,0-.8.36-.8.8v69.83h0c10.39,0,20.26-2.25,29.14-6.28.41-.18.58-.67.39-1.07l-2.45-5.24c-.39-.83.7-1.55,1.31-.88l4.36,4.74c.25.27.65.34.98.16,6.27-3.41,11.96-7.75,16.9-12.83.31-.32.3-.83-.02-1.14l-4.48-4.32c-.66-.64.09-1.7.91-1.29l6.14,3.04c.33.16.74.08.97-.2,4.56-5.44,8.31-11.57,11.07-18.22.17-.42-.03-.89-.45-1.06l-5.4-2.09c-.85-.33-.57-1.6.34-1.55l6.51.41c.36.02.7-.2.81-.55,2.33-7,3.59-14.49,3.59-22.28h-69.83Z"/>
        <rect class="cls-1" x="1438.15" y="35.1" width="70.63" height="70.63"/>
        <path class="cls-9" d="m1508.78,105.73h0c-19.5,0-35.32-15.81-35.32-35.32h0s0,0,0,0c19.5,0,35.32,15.81,35.32,35.32h0Z"/>
        <path class="cls-13" d="m1438.15,105.73h0c0-19.5,15.81-35.32,35.32-35.32h0c0,19.5-15.81,35.32-35.32,35.32Z"/>
        <path class="cls-9" d="m1473.47,70.41h0c0-19.5,15.81-35.32,35.32-35.32h0c0,19.5-15.81,35.32-35.32,35.32Z"/>
        <path class="cls-13" d="m1473.47,70.41h0c-19.5,0-35.32-15.81-35.32-35.32h0s0,0,0,0c19.5,0,35.32,15.81,35.32,35.32h0Z"/>
        <g>
          <rect class="cls-3" x="1438.15" y="110.77" width="70.63" height="70.63"/>
          <g>
            <rect class="cls-9" x="1448.41" y="110.77" width="3.5" height="70.63"/>
            <rect class="cls-9" x="1460.07" y="110.77" width="3.5" height="70.63"/>
            <rect class="cls-9" x="1471.72" y="110.77" width="3.5" height="70.63"/>
            <rect class="cls-9" x="1483.37" y="110.77" width="3.5" height="70.63"/>
            <rect class="cls-9" x="1495.02" y="110.77" width="3.5" height="70.63"/>
          </g>
        </g>
        <rect class="cls-7" x="1438.15" y="186.44" width="70.63" height="70.63" rx="35.32" ry="35.32"/>
        <circle class="cls-8" cx="1473.47" cy="221.75" r="21.1"/>
        <rect class="cls-10" x="1665.54" y="110.77" width="70.63" height="70.63" rx="35.32" ry="35.32"/>
        <rect class="cls-1" x="1684.96" y="147.83" width="12.37" height="12.37" rx="6.19" ry="6.19"/>
        <rect class="cls-1" x="1704.37" y="147.83" width="12.37" height="12.37" rx="6.19" ry="6.19"/>
        <rect class="cls-1" x="1694.16" y="131.97" width="12.37" height="12.37" rx="6.19" ry="6.19"/>
        <rect class="cls-7" x="1589.86" y="110.77" width="70.63" height="70.63"/>
        <path class="cls-13" d="m1638.32,152.4c0,10.97-6.11,15.78-13.64,15.78s-13.64-4.82-13.64-15.78,13.64-26.37,13.64-26.37c0,0,13.64,15.4,13.64,26.37Z"/>
        <path class="cls-9" d="m1589.86,186.44h70.63c0,39.01-31.62,70.63-70.63,70.63h0v-70.63Z"/>
        <path class="cls-5" d="m1589.86,245.3h0v-58.86h58.86c0,32.51-26.35,58.86-58.86,58.86Z"/>
        <path class="cls-2" d="m1589.86,215.87h0v-29.43s29.43,0,29.43,0h0c0,16.25-13.18,29.43-29.43,29.43Z"/>
        <rect class="cls-5" x="1514.19" y="186.44" width="70.63" height="70.63"/>
        <path class="cls-2" d="m1584.83,186.44h0c0,19.5-15.81,35.32-35.32,35.32h0c0-19.5,15.81-35.32,35.32-35.32h0Z"/>
        <path class="cls-12" d="m1584.83,257.07h0s0,0,0,0c-19.5,0-35.32-15.81-35.32-35.32h0s0,0,0,0c19.5,0,35.32,15.81,35.32,35.32Z"/>
        <path class="cls-2" d="m1549.51,221.75h0s0,0,0,0c-19.5,0-35.32-15.81-35.32-35.32h0s0,0,0,0c19.5,0,35.32,15.81,35.32,35.32Z"/>
        <path class="cls-12" d="m1549.51,221.75h0c0,19.5-15.81,35.32-35.32,35.32h0c0-19.5,15.81-35.32,35.32-35.32h0Z"/>
        <rect class="cls-12" x="1514.19" y="110.77" width="70.63" height="70.63"/>
        <path class="cls-6" d="m1584.83,35.1v70.63h-70.63c0-39.01,31.62-70.63,70.63-70.63h0Z"/>
        <rect class="cls-2" x="1560.98" y="84.83" width="12.37" height="12.37" rx="6.19" ry="6.19"/>
        <g>
          <rect class="cls-3" x="1665.54" y="35.1" width="70.63" height="70.63"/>
          <g>
            <rect class="cls-9" x="1722.41" y="35.1" width="3.5" height="70.63"/>
            <rect class="cls-9" x="1710.75" y="35.1" width="3.5" height="70.63"/>
            <rect class="cls-9" x="1699.1" y="35.1" width="3.5" height="70.63"/>
            <rect class="cls-9" x="1687.45" y="35.1" width="3.5" height="70.63"/>
            <rect class="cls-9" x="1675.8" y="35.1" width="3.5" height="70.63"/>
          </g>
        </g>
        <rect class="cls-10" x="1589.86" y="35.1" width="70.63" height="70.63" rx="35.32" ry="35.32"/>
        <circle class="cls-1" cx="1625.18" cy="70.41" r="21.1"/>
        <path class="cls-13" d="m1736.17,187.24c0-.44-.36-.8-.8-.8h-69.83c0,10.39,2.25,20.26,6.28,29.14.18.41.67.58,1.07.39l5.24-2.45c.83-.39,1.55.7.88,1.31l-4.74,4.36c-.27.25-.34.65-.16.98,3.41,6.27,7.75,11.96,12.83,16.9.32.31.83.3,1.14-.02l4.32-4.48c.64-.66,1.7.09,1.29.91l-3.04,6.14c-.16.33-.08.74.2.97,5.44,4.56,11.57,8.31,18.22,11.07.42.17.89-.03,1.06-.45l2.09-5.4c.33-.85,1.6-.57,1.55.34l-.41,6.51c-.02.36.2.7.55.81,7,2.33,14.49,3.59,22.28,3.59h0v-69.83Z"/>
        <rect class="cls-11" x="1614.42" y="210.28" width="12.37" height="12.37" rx="6.19" ry="6.19"/>
      </g>
    </g>
  </g>
</svg>